<?xml version="1.0" encoding="UTF-8" standalone="no"?>
<!-- Created with Inkscape (http://www.inkscape.org/) -->

<svg
   xmlns:dc="http://purl.org/dc/elements/1.1/"
   xmlns:cc="http://creativecommons.org/ns#"
   xmlns:rdf="http://www.w3.org/1999/02/22-rdf-syntax-ns#"
   xmlns:svg="http://www.w3.org/2000/svg"
   xmlns="http://www.w3.org/2000/svg"
   xmlns:sodipodi="http://sodipodi.sourceforge.net/DTD/sodipodi-0.dtd"
   xmlns:inkscape="http://www.inkscape.org/namespaces/inkscape"
   version="1.0"
   width="197.98587"
   height="34.258617"
   id="svg2"
   sodipodi:version="0.32"
   inkscape:version="0.91 r13725"
   sodipodi:docname="banner-big.svg"
   inkscape:output_extension="org.inkscape.output.svg.inkscape"
   inkscape:export-filename="/mnt/nfs/geokrety/templates/logo-jesien.png"
   inkscape:export-xdpi="131.54472"
   inkscape:export-ydpi="131.54472">
  <metadata
     id="metadata32">
    <rdf:RDF>
      <cc:Work
         rdf:about="">
        <dc:format>image/svg+xml</dc:format>
        <dc:type
           rdf:resource="http://purl.org/dc/dcmitype/StillImage" />
        <dc:title />
      </cc:Work>
    </rdf:RDF>
  </metadata>
  <sodipodi:namedview
     inkscape:window-height="843"
     inkscape:window-width="1440"
     inkscape:pageshadow="2"
     inkscape:pageopacity="0.0"
     guidetolerance="10.0"
     gridtolerance="10.0"
     objecttolerance="10.0"
     borderopacity="1.0"
     bordercolor="#666666"
     pagecolor="#ffffff"
     id="base"
     showgrid="false"
     inkscape:zoom="2.7081461"
     inkscape:cx="112.16738"
     inkscape:cy="-18.09323"
     inkscape:window-x="0"
     inkscape:window-y="0"
     inkscape:current-layer="svg2"
     inkscape:window-maximized="1" />
  <defs
     id="defs4">
    <inkscape:perspective
       sodipodi:type="inkscape:persp3d"
       inkscape:vp_x="0 : 17.129309 : 1"
       inkscape:vp_y="0 : 1000 : 0"
       inkscape:vp_z="197.98587 : 17.129309 : 1"
       inkscape:persp3d-origin="98.992935 : 11.419539 : 1"
       id="perspective34" />
    <inkscape:perspective
       id="perspective2736"
       inkscape:persp3d-origin="372.04724 : 350.78739 : 1"
       inkscape:vp_z="744.09448 : 526.18109 : 1"
       inkscape:vp_y="0 : 1000 : 0"
       inkscape:vp_x="0 : 526.18109 : 1"
       sodipodi:type="inkscape:persp3d" />
    <inkscape:perspective
       id="perspective3687"
       inkscape:persp3d-origin="372.04724 : 350.78739 : 1"
       inkscape:vp_z="744.09448 : 526.18109 : 1"
       inkscape:vp_y="0 : 1000 : 0"
       inkscape:vp_x="0 : 526.18109 : 1"
       sodipodi:type="inkscape:persp3d" />
    <inkscape:perspective
       id="perspective3743"
       inkscape:persp3d-origin="0.5 : 0.33333333 : 1"
       inkscape:vp_z="1 : 0.5 : 1"
       inkscape:vp_y="0 : 1000 : 0"
       inkscape:vp_x="0 : 0.5 : 1"
       sodipodi:type="inkscape:persp3d" />
  </defs>
  <g
     id="g2490"
     transform="translate(28.751625,73.516812)"
     inkscape:export-filename="/home/filips/svn/geokrety/rzeczy/logo/geokrety.png"
     inkscape:export-xdpi="468.53"
     inkscape:export-ydpi="468.53">
    <rect
       width="61.299881"
       height="26.478128"
       x="64.375893"
       y="-68.511658"
       id="rect3251"
       style="fill:#000000;fill-opacity:1;fill-rule:nonzero;stroke:none;stroke-width:2;stroke-linejoin:round;stroke-miterlimit:4;stroke-dasharray:none;stroke-opacity:1" />
    <path
       id="text2383"
       d="M 31.101862,-50.457391 L 31.101862,-55.024164 L 27.447222,-55.024164 L 27.447222,-56.914648 L 33.316796,-56.914648 L 33.316796,-49.614645 C 32.452958,-48.984483 31.500537,-48.508065 30.459532,-48.185393 C 29.418501,-47.862721 28.307344,-47.701384 27.126057,-47.701383 C 24.54196,-47.701384 22.520836,-48.477697 21.062676,-50.030324 C 19.604509,-51.582947 18.875428,-53.744854 18.875429,-56.516052 C 18.875428,-59.294824 19.604509,-61.460528 21.062676,-63.013169 C 22.520836,-64.565779 24.54196,-65.342091 27.126057,-65.342108 C 28.20398,-65.342091 29.228387,-65.20543 30.199277,-64.932124 C 31.170143,-64.658784 32.065345,-64.256392 32.884884,-63.724947 L 32.884884,-61.276428 C 32.057962,-61.997683 31.179372,-62.540533 30.249113,-62.904978 C 29.318829,-63.269393 28.340568,-63.451608 27.314326,-63.451625 C 25.291346,-63.451608 23.772272,-62.870798 22.7571,-61.70919 C 21.741918,-60.547555 21.234329,-58.81651 21.234333,-56.516052 C 21.234329,-54.223169 21.741918,-52.495921 22.7571,-51.334303 C 23.772272,-50.172678 25.291346,-49.591867 27.314326,-49.591868 C 28.104308,-49.591867 28.809395,-49.662095 29.429588,-49.802555 C 30.049757,-49.94301 30.607182,-50.16129 31.101862,-50.457391 L 31.101862,-50.457391 z M 47.935359,-54.933056 L 47.935359,-53.908095 L 38.566189,-53.908095 C 38.654784,-52.465551 39.077466,-51.366566 39.834239,-50.611135 C 40.591002,-49.855699 41.644941,-49.477982 42.996057,-49.477983 C 43.778658,-49.477982 44.537272,-49.576682 45.271901,-49.774084 C 46.00651,-49.971481 46.735591,-50.267581 47.459148,-50.662383 L 47.459148,-48.680792 C 46.728208,-48.361914 45.978824,-48.11896 45.210991,-47.95193 C 44.443137,-47.784899 43.66422,-47.701384 42.874236,-47.701383 C 40.895556,-47.701384 39.328492,-48.293583 38.173039,-49.477983 C 37.01758,-50.662381 36.439852,-52.264356 36.439853,-54.283913 C 36.439852,-56.371789 36.988047,-58.028809 38.084441,-59.254977 C 39.180829,-60.481122 40.659296,-61.0942 42.519846,-61.094213 C 44.18842,-61.0942 45.50815,-60.541861 46.47904,-59.437192 C 47.449907,-58.332501 47.935346,-56.831124 47.935359,-54.933056 L 47.935359,-54.933056 z M 45.89762,-55.548032 C 45.882843,-56.694463 45.570906,-57.609335 44.96181,-58.292651 C 44.352694,-58.975949 43.54609,-59.317601 42.541996,-59.317613 C 41.40499,-59.317601 40.495022,-58.987337 39.812089,-58.326817 C 39.129148,-57.666277 38.735997,-56.73622 38.632637,-55.536645 L 45.89762,-55.548032 z M 56.086315,-59.317613 C 54.993608,-59.317601 54.129785,-58.879147 53.494842,-58.002246 C 52.859891,-57.125325 52.542418,-55.923844 52.542421,-54.397798 C 52.542418,-52.871739 52.858046,-51.670258 53.489305,-50.793351 C 54.120556,-49.916438 54.986225,-49.477982 56.086315,-49.477983 C 57.171625,-49.477982 58.031756,-49.918335 58.666712,-50.799045 C 59.30165,-51.679749 59.619124,-52.879332 59.619134,-54.397798 C 59.619124,-55.908659 59.30165,-57.106345 58.666712,-57.990858 C 58.031756,-58.87535 57.171625,-59.317601 56.086315,-59.317613 L 56.086315,-59.317613 z M 56.086315,-61.094213 C 57.858253,-61.0942 59.249968,-60.502001 60.261465,-59.317613 C 61.27294,-58.133203 61.778682,-56.493267 61.778694,-54.397798 C 61.778682,-52.30991 61.27294,-50.671871 60.261465,-49.483678 C 59.249968,-48.295481 57.858253,-47.701384 56.086315,-47.701383 C 54.30698,-47.701384 52.913419,-48.295481 51.905627,-49.483678 C 50.897831,-50.671871 50.393934,-52.30991 50.393935,-54.397798 C 50.393934,-56.493267 50.897831,-58.133203 51.905627,-59.317613 C 52.913419,-60.502001 54.30698,-61.0942 56.086315,-61.094213 L 56.086315,-61.094213 z"
       style="font-size:22.94870567px;font-style:normal;font-weight:normal;fill:#000000;fill-opacity:1;stroke:none;stroke-width:1px;stroke-linecap:butt;stroke-linejoin:miter;stroke-opacity:1;font-family:Bitstream Vera Sans" />
    <path
       id="text2479"
       d="M 66.871012,-65.831418 L 68.948649,-65.831418 L 68.948649,-55.510618 L 75.114176,-60.934928 L 77.753336,-60.934928 L 71.082438,-55.050168 L 78.034098,-48.356808 L 75.338786,-48.356808 L 68.948649,-54.499878 L 68.948649,-48.356808 L 66.871012,-48.356808 L 66.871012,-65.831418 z M 87.579996,-59.003288 C 87.347891,-59.138048 87.095206,-59.237248 86.82194,-59.300898 C 86.548657,-59.364528 86.247306,-59.396348 85.917887,-59.396358 C 84.749912,-59.396348 83.853347,-59.016378 83.22819,-58.256468 C 82.603023,-57.496528 82.290442,-56.405298 82.290446,-54.982788 L 82.290446,-48.356808 L 80.212809,-48.356808 L 80.212809,-60.934928 L 82.290446,-60.934928 L 82.290446,-58.980828 C 82.724686,-59.744488 83.289952,-60.311628 83.986246,-60.682248 C 84.682529,-61.052838 85.528557,-61.238138 86.524332,-61.238158 C 86.666576,-61.238138 86.823803,-61.228788 86.996012,-61.210078 C 87.168204,-61.191348 87.359121,-61.163268 87.568766,-61.125848 L 87.579996,-59.003288 z M 100.52873,-55.162468 L 100.52873,-54.151728 L 91.02775,-54.151728 C 91.117591,-52.729198 91.54622,-51.645458 92.313639,-50.900508 C 93.081049,-50.155548 94.149814,-49.783078 95.519938,-49.783078 C 96.313549,-49.783078 97.082835,-49.880408 97.827799,-50.075068 C 98.572743,-50.269728 99.312081,-50.561718 100.04582,-50.951048 L 100.04582,-48.996948 C 99.304594,-48.682488 98.544667,-48.442908 97.766032,-48.278198 C 96.987376,-48.113478 96.197501,-48.031128 95.396403,-48.031128 C 93.389887,-48.031128 91.800777,-48.615108 90.629069,-49.783078 C 89.457355,-50.951038 88.871499,-52.530798 88.8715,-54.522338 C 88.871499,-56.581248 89.427407,-58.215278 90.539225,-59.424438 C 91.651037,-60.633568 93.150303,-61.238138 95.037028,-61.238158 C 96.729076,-61.238138 98.067372,-60.693468 99.05192,-59.604118 C 100.03645,-58.514758 100.52871,-57.034208 100.52873,-55.162468 L 100.52873,-55.162468 z M 98.462321,-55.768918 C 98.447336,-56.899438 98.131011,-57.801618 97.513346,-58.475458 C 96.895661,-59.149278 96.077709,-59.486188 95.059489,-59.486198 C 93.906488,-59.486188 92.983718,-59.160508 92.291178,-58.509148 C 91.598629,-57.857778 91.199947,-56.940618 91.095133,-55.757688 L 98.462321,-55.768918 z M 105.96427,-64.506218 L 105.96427,-60.934928 L 110.22062,-60.934928 L 110.22062,-59.328978 L 105.96427,-59.328978 L 105.96427,-52.500848 C 105.96427,-51.475128 106.10465,-50.816278 106.38542,-50.524288 C 106.66617,-50.232298 107.23705,-50.086298 108.09806,-50.086298 L 110.22062,-50.086298 L 110.22062,-48.356808 L 108.09806,-48.356808 C 106.50333,-48.356808 105.40275,-48.654418 104.7963,-49.249628 C 104.18986,-49.844838 103.88663,-50.928578 103.88664,-52.500848 L 103.88664,-59.328978 L 102.37052,-59.328978 L 102.37052,-60.934928 L 103.88664,-60.934928 L 103.88664,-64.506218 L 105.96427,-64.506218 z M 118.18302,-47.188838 C 117.59903,-45.691448 117.03002,-44.714398 116.47599,-44.257688 C 115.92195,-43.800988 115.18074,-43.572628 114.25236,-43.572628 L 112.60148,-43.572628 L 112.60148,-45.302118 L 113.81437,-45.302118 C 114.38338,-45.302118 114.82511,-45.436888 115.13957,-45.706418 C 115.45401,-45.975948 115.80216,-46.612338 116.184,-47.615598 L 116.55461,-48.558958 L 111.4672,-60.934928 L 113.65714,-60.934928 L 117.58781,-51.097038 L 121.51847,-60.934928 L 123.70841,-60.934928 L 118.18302,-47.188838 z"
       style="font-size:40px;font-style:normal;font-weight:normal;fill:#ffffff;fill-opacity:1;stroke:none;stroke-width:1px;stroke-linecap:butt;stroke-linejoin:miter;stroke-opacity:1;font-family:Bitstream Vera Sans" />
    <path
       id="text2483"
       d="M 127.65643,-50.958365 L 130.02606,-50.958365 L 130.02606,-48.105825 L 127.65643,-48.105825 L 127.65643,-50.958365 z M 139.56073,-59.235225 C 138.45265,-59.235215 137.57667,-58.802835 136.9328,-57.938105 C 136.28891,-57.073345 135.96697,-55.888535 135.96698,-54.383655 C 135.96697,-52.878775 136.28704,-51.693955 136.92718,-50.829215 C 137.56731,-49.964465 138.44516,-49.532095 139.56073,-49.532095 C 140.6613,-49.532095 141.53354,-49.966335 142.17743,-50.834835 C 142.82129,-51.703315 143.14323,-52.886255 143.14325,-54.383655 C 143.14323,-55.873555 142.82129,-57.054625 142.17743,-57.926875 C 141.53354,-58.799095 140.6613,-59.235215 139.56073,-59.235225 L 139.56073,-59.235225 z M 139.56073,-60.987175 C 141.35759,-60.987165 142.76889,-60.403175 143.79461,-59.235225 C 144.82032,-58.067245 145.33317,-56.450055 145.33319,-54.383655 C 145.33317,-52.324735 144.82032,-50.709425 143.79461,-49.537715 C 142.76889,-48.365995 141.35759,-47.780145 139.56073,-47.780145 C 137.75636,-47.780145 136.34319,-48.365995 135.32122,-49.537715 C 134.29925,-50.709425 133.78826,-52.324735 133.78826,-54.383655 C 133.78826,-56.450055 134.29925,-58.067245 135.32122,-59.235225 C 136.34319,-60.403175 137.75636,-60.987165 139.56073,-60.987175 L 139.56073,-60.987175 z M 156.03582,-58.752315 C 155.80372,-58.887065 155.55103,-58.986265 155.27777,-59.049915 C 155.00448,-59.113545 154.70313,-59.145365 154.37371,-59.145375 C 153.20574,-59.145365 152.30917,-58.765405 151.68402,-58.005485 C 151.05885,-57.245545 150.74627,-56.154325 150.74627,-54.731805 L 150.74627,-48.105825 L 148.66864,-48.105825 L 148.66864,-60.683955 L 150.74627,-60.683955 L 150.74627,-58.729855 C 151.18051,-59.493515 151.74578,-60.060645 152.44207,-60.431265 C 153.13836,-60.801855 153.98438,-60.987165 154.98016,-60.987175 C 155.1224,-60.987165 155.27963,-60.977805 155.45184,-60.959095 C 155.62403,-60.940365 155.81495,-60.912295 156.02459,-60.874865 L 156.03582,-58.752315 z M 166.50262,-54.540885 C 166.50261,-56.038275 166.19377,-57.198755 165.57611,-58.022335 C 164.95842,-58.845885 164.09181,-59.257675 162.97625,-59.257685 C 161.86817,-59.257675 161.0053,-58.845885 160.38763,-58.022335 C 159.76995,-57.198755 159.46111,-56.038275 159.46112,-54.540885 C 159.46111,-53.050975 159.76995,-51.894235 160.38763,-51.070675 C 161.0053,-50.247105 161.86817,-49.835315 162.97625,-49.835315 C 164.09181,-49.835315 164.95842,-50.247105 165.57611,-51.070675 C 166.19377,-51.894235 166.50261,-53.050975 166.50262,-54.540885 L 166.50262,-54.540885 z M 168.56903,-49.666865 C 168.56901,-47.525585 168.09359,-45.932735 167.14276,-44.888295 C 166.1919,-43.843865 164.73568,-43.321652 162.7741,-43.321647 C 162.04786,-43.321652 161.3628,-43.375932 160.71893,-43.484489 C 160.07504,-43.593054 159.44988,-43.759635 158.84344,-43.984245 L 158.84344,-45.994495 C 159.44988,-45.665075 160.04884,-45.421745 160.64032,-45.264515 C 161.23178,-45.107295 161.83448,-45.028685 162.44842,-45.028675 C 163.80356,-45.028685 164.81804,-45.382445 165.49188,-46.089955 C 166.1657,-46.797475 166.50261,-47.866245 166.50262,-49.296255 L 166.50262,-50.318225 C 166.07585,-49.577015 165.5293,-49.022985 164.86297,-48.656115 C 164.19662,-48.289255 163.39926,-48.105825 162.47088,-48.105825 C 160.92856,-48.105825 159.68572,-48.693555 158.74237,-49.869015 C 157.79901,-51.044465 157.32733,-52.601755 157.32733,-54.540885 C 157.32733,-56.487495 157.79901,-58.048525 158.74237,-59.223995 C 159.68572,-60.399435 160.92856,-60.987165 162.47088,-60.987175 C 163.39926,-60.987165 164.19662,-60.803735 164.86297,-60.436885 C 165.5293,-60.070005 166.07585,-59.515975 166.50262,-58.774775 L 166.50262,-60.683955 L 168.56903,-60.683955 L 168.56903,-49.666865 z"
       style="font-size:23px;font-style:normal;font-weight:normal;fill:#000000;fill-opacity:1;stroke:none;stroke-width:1px;stroke-linecap:butt;stroke-linejoin:miter;stroke-opacity:1;font-family:Bitstream Vera Sans" />
  </g>
  <polygon
     id="polygon3440"
     points="99.9553,101.792 100.167,101.792 99.9553,101.792 "
     class="fil59"
     style="fill:#ffffff;fill-rule:nonzero"
     transform="matrix(1.8094894,0,0,1.8094894,-1018.7853,-73.3414)" />
  <polygon
     id="polygon3450"
     points="149.309,106.555 149.485,106.555 149.309,106.555 "
     class="fil59"
     style="fill:#ffffff;fill-rule:nonzero"
     transform="matrix(1.8094894,0,0,1.8094894,-1018.7853,-73.3414)" />
  <polygon
     id="polygon3456"
     points="116.395,107.26 116.606,107.26 116.395,107.26 "
     class="fil58"
     style="fill:#000000;fill-rule:nonzero"
     transform="matrix(1.8094894,0,0,1.8094894,-1018.7853,-73.3414)" />
  <polygon
     id="polygon3466"
     points="143.276,110.647 143.382,110.647 143.276,110.647 "
     class="fil59"
     style="fill:#ffffff;fill-rule:nonzero"
     transform="matrix(1.8094894,0,0,1.8094894,-1018.7853,-73.3414)" />
  <polygon
     id="polygon3472"
     points="142.077,111.317 142.289,111.317 142.077,111.317 "
     class="fil59"
     style="fill:#ffffff;fill-rule:nonzero"
     transform="matrix(1.8094894,0,0,1.8094894,-1018.7853,-73.3414)" />
  <polygon
     id="polygon3504"
     points="85.2445,126.981 85.3503,126.981 85.2445,126.981 "
     class="fil59"
     style="fill:#ffffff;fill-rule:nonzero"
     transform="matrix(1.8094894,0,0,1.8094894,-1018.7853,-73.3414)" />
  <polygon
     id="polygon3520"
     points="149.944,135.871 150.12,135.871 149.944,135.871 "
     class="fil59"
     style="fill:#ffffff;fill-rule:nonzero"
     transform="matrix(1.8094894,0,0,1.8094894,-1018.7853,-73.3414)" />
  <polygon
     id="polygon3532"
     points="82.2459,140.951 82.4575,140.951 82.2459,140.951 "
     class="fil59"
     style="fill:#ffffff;fill-rule:nonzero"
     transform="matrix(1.8094894,0,0,1.8094894,-1018.7853,-73.3414)" />
  <polygon
     id="polygon3536"
     points="109.339,141.797 109.586,141.797 109.339,141.797 "
     class="fil59"
     style="fill:#ffffff;fill-rule:nonzero"
     transform="matrix(1.8094894,0,0,1.8094894,-1018.7853,-73.3414)" />
  <polygon
     id="polygon3560"
     points="131.07,148.218 131.247,148.218 131.07,148.218 "
     class="fil59"
     style="fill:#ffffff;fill-rule:nonzero"
     transform="matrix(1.8094894,0,0,1.8094894,-1018.7853,-73.3414)" />
  <polygon
     id="polygon3572"
     points="113.079,153.298 113.255,153.298 113.079,153.298 "
     class="fil59"
     style="fill:#ffffff;fill-rule:nonzero"
     transform="matrix(1.8094894,0,0,1.8094894,-1018.7853,-73.3414)" />
  <polygon
     id="polygon3576"
     points="145.605,153.721 145.781,153.721 145.605,153.721 "
     class="fil59"
     style="fill:#ffffff;fill-rule:nonzero"
     transform="matrix(1.8094894,0,0,1.8094894,-1018.7853,-73.3414)" />
  <polygon
     id="polygon3586"
     points="106.164,157.708 106.305,157.708 106.164,157.708 "
     class="fil59"
     style="fill:#ffffff;fill-rule:nonzero"
     transform="matrix(1.8094894,0,0,1.8094894,-1018.7853,-73.3414)" />
  <polygon
     id="polygon3618"
     points="129.589,173.477 129.765,173.477 129.589,173.477 "
     class="fil59"
     style="fill:#ffffff;fill-rule:nonzero"
     transform="matrix(1.8094894,0,0,1.8094894,-1018.7853,-73.3414)" />
  <polygon
     id="polygon3630"
     points="100.59,177.569 100.943,177.569 100.59,177.569 "
     class="fil58"
     style="fill:#000000;fill-rule:nonzero"
     transform="matrix(1.8094894,0,0,1.8094894,-1018.7853,-73.3414)" />
  <polygon
     id="polygon3686"
     points="109.692,201.205 110.327,201.205 109.692,201.205 "
     class="fil59"
     style="fill:#ffffff;fill-rule:nonzero"
     transform="matrix(1.8094894,0,0,1.8094894,-1018.7853,-73.3414)" />
  <polygon
     id="polygon3690"
     points="89.5837,203.004 89.7601,203.004 89.5837,203.004 "
     class="fil58"
     style="fill:#000000;fill-rule:nonzero"
     transform="matrix(1.8094894,0,0,1.8094894,-1018.7853,-73.3414)" />
  <polygon
     id="polygon3694"
     points="109.621,203.251 109.974,203.251 109.621,203.251 "
     class="fil59"
     style="fill:#ffffff;fill-rule:nonzero"
     transform="matrix(1.8094894,0,0,1.8094894,-1018.7853,-73.3414)" />
  <polygon
     id="polygon3696"
     points="106.023,203.322 106.199,203.322 106.023,203.322 "
     class="fil59"
     style="fill:#ffffff;fill-rule:nonzero"
     transform="matrix(1.8094894,0,0,1.8094894,-1018.7853,-73.3414)" />
  <g
     id="g15767"
     transform="matrix(0.2230704,0,0,0.2322423,46.969368,6.5451007)"
     inkscape:export-filename="/home/filips/svn/geokrety/rzeczy/logo/geokrety.png"
     inkscape:export-xdpi="468.53"
     inkscape:export-ydpi="468.53">
    <polygon
       transform="matrix(1.8020893,-0.1634812,0.1634812,1.8020893,-298.8125,-111.4466)"
       style="fill:#ffffff;fill-rule:nonzero;stroke-linecap:round;stroke-linejoin:round"
       class="fil59"
       points="151.143,106.696 151.073,106.766 151.143,106.696 "
       id="polygon2819" />
    <polygon
       transform="matrix(1.8020893,-0.1634812,0.1634812,1.8020893,-298.8125,-111.4466)"
       style="fill:#ffffff;fill-rule:nonzero;stroke-linecap:round;stroke-linejoin:round"
       class="fil59"
       points="151.955,106.908 152.06,107.049 151.955,106.908 "
       id="polygon2821" />
    <polygon
       transform="matrix(1.8020893,-0.1634812,0.1634812,1.8020893,-298.8125,-111.4466)"
       style="fill:#ffffff;fill-rule:nonzero;stroke-linecap:round;stroke-linejoin:round"
       class="fil59"
       points="147.686,117.844 147.545,117.914 147.686,117.844 "
       id="polygon2823" />
    <path
       sodipodi:nodetypes="cssz"
       id="path2825"
       d="M -79.4383,41.734855 C -65.271766,52.257641 -16.998351,82.84439 -12.71995,90.448659 C -9.5091385,96.155432 -16.61309,106.92599 -22.070991,104.8329 C -33.802516,100.3339 -28.538218,94.655651 -77.931107,57.340667"
       style="fill:#e9c642;fill-opacity:1;fill-rule:evenodd;stroke:#000000;stroke-width:2.81500006;stroke-linecap:round;stroke-linejoin:round;stroke-miterlimit:4;stroke-dasharray:none;stroke-opacity:1" />
    <path
       sodipodi:nodetypes="cscszczzzzzzzzzczzzzzz"
       id="path2827"
       d="M -77.634427,85.689881 C -75.225706,84.463375 -64.695395,82.57159 -62.481237,79.707255 C -60.267605,76.843599 -61.807466,73.375307 -60.79779,70.964798 C -58.209285,72.843818 -53.791405,73.876445 -52.294355,73.229633 C -50.890766,72.623202 -47.728803,67.416718 -47.7032,65.370919 C -47.677598,63.325109 -49.812074,61.762336 -51.155325,61.005459 C -45.63657,57.552829 -42.13148,57.593275 -38.197571,58.496393 C -34.263663,59.399511 -35.395899,61.668673 -33.204398,63.009063 C -31.066471,64.316685 -29.349056,63.6435 -27.967583,64.912317 C -26.58611,66.181134 -26.376623,68.33181 -24.867266,69.991223 C -23.321076,71.691132 -22.168224,70.902181 -20.464508,73.015609 C -18.76079,75.129037 -19.311871,76.317782 -18.19896,78.664803 C -17.086048,81.011834 -14.188166,79.89819 -17.298876,85.688362 C -20.315615,91.303608 -23.935212,94.282349 -26.428452,96.164522 C -28.983967,98.093714 -34.845869,99.808118 -36.140775,98.629599 C -37.685268,97.22392 -37.019997,97.339096 -36.568551,95.966144 C -37.818335,96.475521 -38.477557,97.077602 -40.853661,97.473152 C -43.229764,97.868703 -43.758725,97.196695 -44.735518,95.953309 C -45.71231,94.709924 -43.524003,91.847422 -44.76083,92.499622 C -45.997657,93.151822 -45.865152,96.199786 -49.682827,98.562111 C -53.500503,100.92443 -59.467208,103.68872 -64.255122,104.48306 C -69.043036,105.2774 -72.074006,102.14138 -74.274745,102.08902"
       style="fill:#d4af8b;fill-opacity:1;fill-rule:evenodd;stroke:#000000;stroke-width:2.81500006;stroke-linecap:round;stroke-linejoin:round;stroke-miterlimit:4;stroke-dasharray:none;stroke-opacity:1" />
    <path
       sodipodi:nodetypes="cszz"
       id="path2829"
       d="M -57.646164,81.235683 C -51.145445,87.429425 -40.925237,96.551992 -32.688478,95.653113 C -28.855314,95.235682 -35.753515,81.651567 -41.195349,76.364767 C -46.637184,71.077967 -53.960729,74.144265 -55.960082,75.381439"
       style="fill:none;fill-opacity:0.75;fill-rule:evenodd;stroke:#000000;stroke-width:2.81500006;stroke-linecap:round;stroke-linejoin:round;stroke-miterlimit:4;stroke-dasharray:none;stroke-opacity:1" />
    <path
       sodipodi:nodetypes="cz"
       id="path2831"
       d="M -40.681261,76.212549 C -39.260325,75.73036 -36.451694,72.486614 -35.891209,67.331664"
       style="fill:none;fill-opacity:0.75;fill-rule:evenodd;stroke:#000000;stroke-width:2.81500006;stroke-linecap:round;stroke-linejoin:round;stroke-miterlimit:4;stroke-dasharray:none;stroke-opacity:1" />
    <path
       sodipodi:nodetypes="cz"
       id="path2833"
       d="M -34.331917,85.085243 C -31.532034,81.931105 -28.354551,77.880543 -27.766313,74.270568"
       style="fill:none;fill-opacity:0.75;fill-rule:evenodd;stroke:#000000;stroke-width:2.81500006;stroke-linecap:round;stroke-linejoin:round;stroke-miterlimit:4;stroke-dasharray:none;stroke-opacity:1" />
    <path
       sodipodi:nodetypes="cz"
       id="path2835"
       d="M -31.269709,93.835147 C -26.578812,90.56099 -23.347373,86.645088 -21.855797,82.489985"
       style="fill:none;fill-opacity:0.75;fill-rule:evenodd;stroke:#000000;stroke-width:2.81500006;stroke-linecap:round;stroke-linejoin:round;stroke-miterlimit:4;stroke-dasharray:none;stroke-opacity:1" />
    <g
       transform="matrix(0.702831,3.7163548e-2,-3.7163548e-2,0.702831,-275.97308,-686.68328)"
       id="g2837">
      <path
         style="opacity:1;fill:#667b58;fill-opacity:1;fill-rule:evenodd;stroke:#000000;stroke-width:4;stroke-linecap:butt;stroke-linejoin:round;stroke-miterlimit:4;stroke-dasharray:none;stroke-opacity:1"
         d="M 291.29335,966.00527 L 252.61617,1040.1833 L 205.71775,1025.7961 L 150.41126,971.7975 L 223.09446,944.14426 L 291.29335,966.00527 z"
         id="path2839"
         sodipodi:nodetypes="cccccc" />
      <path
         style="opacity:1;fill:#c5c5c5;fill-opacity:1;fill-rule:evenodd;stroke:#000000;stroke-width:4;stroke-linecap:butt;stroke-linejoin:round;stroke-miterlimit:4;stroke-dasharray:none;stroke-opacity:1"
         d="M 205.71775,1025.7961 L 150.41126,971.79749 L 223.09446,944.14425 L 245.42215,951.6338 L 177.66932,977.12969 L 226.97716,1032.1482 L 205.71775,1025.7961 z"
         id="path2841"
         sodipodi:nodetypes="ccccccc" />
      <path
         style="fill:#667b58;fill-opacity:1;fill-rule:evenodd;stroke:#000000;stroke-width:4;stroke-linecap:butt;stroke-linejoin:round;stroke-miterlimit:4;stroke-dasharray:none;stroke-opacity:1"
         d="M 288.17968,1000.584 L 278.98243,1020.2322 C 263.77968,1010.4249 217.31948,992.73682 226.58677,983.76771 C 235.999,974.65833 265.00274,987.54157 288.17968,1000.584 z"
         id="path2843"
         sodipodi:nodetypes="cczc" />
    </g>
    <path
       sodipodi:nodetypes="cccszscccczzc"
       id="path2845"
       d="M -64.623652,62.930554 C -66.456684,68.179661 -67.840387,89.6045 -61.136238,105.6375 C -115.97415,103.81315 -119.16586,83.734739 -160.21029,74.868976 C -154.55315,61.486426 -147.2576,54.440235 -135.3177,44.916252 C -129.9827,40.660732 -123.45644,32.72938 -118.26292,27.617798 C -113.0694,22.506216 -108.72745,18.886839 -102.6931,16.341167 C -91.569077,11.64835 -75.805061,12.823941 -66.178093,21.447259 C -69.033314,22.126579 -75.947544,21.340983 -75.894357,26.396471 C -75.389646,32.103972 -79.900467,34.706531 -83.860316,37.740668 C -86.438291,40.411287 -84.960037,44.52268 -88.777828,46.06037 C -88.957251,50.633184 -87.182594,55.046794 -84.585904,59.102094 C -81.874726,63.336162 -79.057053,66.063015 -75.20783,68.562395 C -71.358607,71.061846 -67.071,65.804434 -64.623652,62.930554 z"
       style="fill:#5d5d5d;fill-opacity:1;fill-rule:evenodd;stroke:#000000;stroke-width:2.81525159;stroke-linecap:butt;stroke-linejoin:round;stroke-miterlimit:4;stroke-dasharray:none;stroke-opacity:1" />
    <path
       sodipodi:nodetypes="ccccczzczccczz"
       id="path2847"
       d="M -64.873618,62.627422 C -68.108504,66.132974 -71.608573,70.758713 -75.457796,68.259263 C -79.307019,65.759882 -82.124692,63.03303 -84.835871,58.798962 C -87.43256,54.743662 -89.207217,50.330051 -89.027794,45.757238 C -85.210003,44.219548 -86.688257,40.108154 -84.110282,37.437536 C -80.150433,34.403399 -75.639612,31.80084 -76.144323,26.093339 C -76.19751,21.037781 -68.16709,21.882356 -66.242084,21.98096 C -64.22433,22.084351 -53.110118,23.524985 -49.465549,23.316305 C -46.943323,21.527212 -44.230314,18.550084 -42.576952,17.52125 C -40.966657,16.519232 -38.828452,14.01415 -36.794179,14.751676 C -30.439713,15.1696 -31.979036,22.423588 -32.32401,27.19171 C -33.238545,33.430941 -41.648025,35.120725 -50.000419,41.283944 C -56.191235,45.988159 -55.649798,46.374693 -59.368098,51.71058 C -63.086398,57.046467 -61.638732,59.121871 -64.873618,62.627422 z"
       style="fill:#d4af8b;fill-opacity:1;fill-rule:evenodd;stroke:#000000;stroke-width:2.81525159;stroke-linecap:butt;stroke-linejoin:round;stroke-miterlimit:4;stroke-dasharray:none;stroke-opacity:1" />
    <path
       sodipodi:nodetypes="cc"
       id="path2849"
       d="M -38.082516,21.963435 C -37.952191,25.155579 -39.111406,27.283839 -40.958739,28.075417"
       style="fill:none;fill-opacity:0.75;fill-rule:evenodd;stroke:#000000;stroke-width:3.51906443;stroke-linecap:round;stroke-linejoin:miter;stroke-miterlimit:4;stroke-dasharray:none;stroke-opacity:1" />
    <path
       sodipodi:nodetypes="cccccccc"
       style="fill:#000000;fill-rule:nonzero;stroke:#000000;stroke-width:2.81525159;stroke-linecap:round;stroke-linejoin:round;stroke-miterlimit:4;stroke-dasharray:none;stroke-opacity:1"
       class="fil58"
       d="M -70.035044,50.037617 C -68.931395,50.000948 -63.039088,47.394729 -62.244976,46.994189 C -64.149944,50.30218 -65.622236,51.000715 -67.586634,55.274407 C -68.452085,57.633307 -70.000431,60.737896 -72.542955,62.306906 C -76.307221,59.559431 -76.633304,54.192858 -78.372356,50.144174 C -83.113422,47.104336 -86.30881,41.897317 -90.626442,42.682983 C -91.652777,40.310712 -90.072647,38.437584 -90.023697,36.25323 C -88.042956,46.509755 -75.600459,50.158039 -70.035044,50.037617 z"
       id="path2851" />
    <path
       style="fill:#ffffff;fill-rule:nonzero"
       class="fil59"
       d="M -68.470517,56.305845 C -69.131187,56.86784 -74.068927,57.093553 -75.232541,56.822233 C -75.688963,55.811276 -76.06311,52.780869 -76.698161,51.575096 C -75.814031,51.597126 -67.606517,52.304528 -64.853834,49.876092 C -66.037366,51.071448 -68.850225,56.440062 -68.470517,56.305845 L -68.470517,56.305845 z"
       id="path2853" />
    <path
       sodipodi:nodetypes="czzc"
       id="path2855"
       d="M -96.300004,30.03441 C -92.747685,29.006069 -92.056977,27.14378 -88.937361,25.920975 C -85.817746,24.698171 -85.804782,24.888341 -83.821535,25.143262 C -81.838289,25.398183 -81.004377,26.94073 -81.004377,26.94073"
       style="fill:none;fill-opacity:0.75;fill-rule:evenodd;stroke:#000000;stroke-width:2.81500006;stroke-linecap:round;stroke-linejoin:round;stroke-miterlimit:4;stroke-dasharray:none;stroke-opacity:1" />
  </g>
  <g
     transform="translate(28.751625,73.516812)"
     id="g3693"
     inkscape:export-filename="/home/filips/svn/geokrety/rzeczy/logo/geokrety.png"
     inkscape:export-xdpi="468.53"
     inkscape:export-ydpi="468.53">
    <rect
       style="fill:#000000;fill-opacity:1;fill-rule:nonzero;stroke:none;stroke-width:2;stroke-linejoin:round;stroke-miterlimit:4;stroke-dasharray:none;stroke-opacity:1"
       id="rect3695"
       y="-68.511658"
       x="64.375893"
       height="26.478128"
       width="61.299881" />
    <path
       style="font-size:22.94870567px;font-style:normal;font-weight:normal;fill:#000000;fill-opacity:1;stroke:none;stroke-width:1px;stroke-linecap:butt;stroke-linejoin:miter;stroke-opacity:1;font-family:Bitstream Vera Sans"
       d="M 31.101862,-50.457391 L 31.101862,-55.024164 L 27.447222,-55.024164 L 27.447222,-56.914648 L 33.316796,-56.914648 L 33.316796,-49.614645 C 32.452958,-48.984483 31.500537,-48.508065 30.459532,-48.185393 C 29.418501,-47.862721 28.307344,-47.701384 27.126057,-47.701383 C 24.54196,-47.701384 22.520836,-48.477697 21.062676,-50.030324 C 19.604509,-51.582947 18.875428,-53.744854 18.875429,-56.516052 C 18.875428,-59.294824 19.604509,-61.460528 21.062676,-63.013169 C 22.520836,-64.565779 24.54196,-65.342091 27.126057,-65.342108 C 28.20398,-65.342091 29.228387,-65.20543 30.199277,-64.932124 C 31.170143,-64.658784 32.065345,-64.256392 32.884884,-63.724947 L 32.884884,-61.276428 C 32.057962,-61.997683 31.179372,-62.540533 30.249113,-62.904978 C 29.318829,-63.269393 28.340568,-63.451608 27.314326,-63.451625 C 25.291346,-63.451608 23.772272,-62.870798 22.7571,-61.70919 C 21.741918,-60.547555 21.234329,-58.81651 21.234333,-56.516052 C 21.234329,-54.223169 21.741918,-52.495921 22.7571,-51.334303 C 23.772272,-50.172678 25.291346,-49.591867 27.314326,-49.591868 C 28.104308,-49.591867 28.809395,-49.662095 29.429588,-49.802555 C 30.049757,-49.94301 30.607182,-50.16129 31.101862,-50.457391 L 31.101862,-50.457391 z M 47.935359,-54.933056 L 47.935359,-53.908095 L 38.566189,-53.908095 C 38.654784,-52.465551 39.077466,-51.366566 39.834239,-50.611135 C 40.591002,-49.855699 41.644941,-49.477982 42.996057,-49.477983 C 43.778658,-49.477982 44.537272,-49.576682 45.271901,-49.774084 C 46.00651,-49.971481 46.735591,-50.267581 47.459148,-50.662383 L 47.459148,-48.680792 C 46.728208,-48.361914 45.978824,-48.11896 45.210991,-47.95193 C 44.443137,-47.784899 43.66422,-47.701384 42.874236,-47.701383 C 40.895556,-47.701384 39.328492,-48.293583 38.173039,-49.477983 C 37.01758,-50.662381 36.439852,-52.264356 36.439853,-54.283913 C 36.439852,-56.371789 36.988047,-58.028809 38.084441,-59.254977 C 39.180829,-60.481122 40.659296,-61.0942 42.519846,-61.094213 C 44.18842,-61.0942 45.50815,-60.541861 46.47904,-59.437192 C 47.449907,-58.332501 47.935346,-56.831124 47.935359,-54.933056 L 47.935359,-54.933056 z M 45.89762,-55.548032 C 45.882843,-56.694463 45.570906,-57.609335 44.96181,-58.292651 C 44.352694,-58.975949 43.54609,-59.317601 42.541996,-59.317613 C 41.40499,-59.317601 40.495022,-58.987337 39.812089,-58.326817 C 39.129148,-57.666277 38.735997,-56.73622 38.632637,-55.536645 L 45.89762,-55.548032 z M 56.086315,-59.317613 C 54.993608,-59.317601 54.129785,-58.879147 53.494842,-58.002246 C 52.859891,-57.125325 52.542418,-55.923844 52.542421,-54.397798 C 52.542418,-52.871739 52.858046,-51.670258 53.489305,-50.793351 C 54.120556,-49.916438 54.986225,-49.477982 56.086315,-49.477983 C 57.171625,-49.477982 58.031756,-49.918335 58.666712,-50.799045 C 59.30165,-51.679749 59.619124,-52.879332 59.619134,-54.397798 C 59.619124,-55.908659 59.30165,-57.106345 58.666712,-57.990858 C 58.031756,-58.87535 57.171625,-59.317601 56.086315,-59.317613 L 56.086315,-59.317613 z M 56.086315,-61.094213 C 57.858253,-61.0942 59.249968,-60.502001 60.261465,-59.317613 C 61.27294,-58.133203 61.778682,-56.493267 61.778694,-54.397798 C 61.778682,-52.30991 61.27294,-50.671871 60.261465,-49.483678 C 59.249968,-48.295481 57.858253,-47.701384 56.086315,-47.701383 C 54.30698,-47.701384 52.913419,-48.295481 51.905627,-49.483678 C 50.897831,-50.671871 50.393934,-52.30991 50.393935,-54.397798 C 50.393934,-56.493267 50.897831,-58.133203 51.905627,-59.317613 C 52.913419,-60.502001 54.30698,-61.0942 56.086315,-61.094213 L 56.086315,-61.094213 z"
       id="path3697" />
    <path
       style="font-size:40px;font-style:normal;font-weight:normal;fill:#ffffff;fill-opacity:1;stroke:none;stroke-width:1px;stroke-linecap:butt;stroke-linejoin:miter;stroke-opacity:1;font-family:Bitstream Vera Sans"
       d="M 66.871012,-65.831418 L 68.948649,-65.831418 L 68.948649,-55.510618 L 75.114176,-60.934928 L 77.753336,-60.934928 L 71.082438,-55.050168 L 78.034098,-48.356808 L 75.338786,-48.356808 L 68.948649,-54.499878 L 68.948649,-48.356808 L 66.871012,-48.356808 L 66.871012,-65.831418 z M 87.579996,-59.003288 C 87.347891,-59.138048 87.095206,-59.237248 86.82194,-59.300898 C 86.548657,-59.364528 86.247306,-59.396348 85.917887,-59.396358 C 84.749912,-59.396348 83.853347,-59.016378 83.22819,-58.256468 C 82.603023,-57.496528 82.290442,-56.405298 82.290446,-54.982788 L 82.290446,-48.356808 L 80.212809,-48.356808 L 80.212809,-60.934928 L 82.290446,-60.934928 L 82.290446,-58.980828 C 82.724686,-59.744488 83.289952,-60.311628 83.986246,-60.682248 C 84.682529,-61.052838 85.528557,-61.238138 86.524332,-61.238158 C 86.666576,-61.238138 86.823803,-61.228788 86.996012,-61.210078 C 87.168204,-61.191348 87.359121,-61.163268 87.568766,-61.125848 L 87.579996,-59.003288 z M 100.52873,-55.162468 L 100.52873,-54.151728 L 91.02775,-54.151728 C 91.117591,-52.729198 91.54622,-51.645458 92.313639,-50.900508 C 93.081049,-50.155548 94.149814,-49.783078 95.519938,-49.783078 C 96.313549,-49.783078 97.082835,-49.880408 97.827799,-50.075068 C 98.572743,-50.269728 99.312081,-50.561718 100.04582,-50.951048 L 100.04582,-48.996948 C 99.304594,-48.682488 98.544667,-48.442908 97.766032,-48.278198 C 96.987376,-48.113478 96.197501,-48.031128 95.396403,-48.031128 C 93.389887,-48.031128 91.800777,-48.615108 90.629069,-49.783078 C 89.457355,-50.951038 88.871499,-52.530798 88.8715,-54.522338 C 88.871499,-56.581248 89.427407,-58.215278 90.539225,-59.424438 C 91.651037,-60.633568 93.150303,-61.238138 95.037028,-61.238158 C 96.729076,-61.238138 98.067372,-60.693468 99.05192,-59.604118 C 100.03645,-58.514758 100.52871,-57.034208 100.52873,-55.162468 L 100.52873,-55.162468 z M 98.462321,-55.768918 C 98.447336,-56.899438 98.131011,-57.801618 97.513346,-58.475458 C 96.895661,-59.149278 96.077709,-59.486188 95.059489,-59.486198 C 93.906488,-59.486188 92.983718,-59.160508 92.291178,-58.509148 C 91.598629,-57.857778 91.199947,-56.940618 91.095133,-55.757688 L 98.462321,-55.768918 z M 105.96427,-64.506218 L 105.96427,-60.934928 L 110.22062,-60.934928 L 110.22062,-59.328978 L 105.96427,-59.328978 L 105.96427,-52.500848 C 105.96427,-51.475128 106.10465,-50.816278 106.38542,-50.524288 C 106.66617,-50.232298 107.23705,-50.086298 108.09806,-50.086298 L 110.22062,-50.086298 L 110.22062,-48.356808 L 108.09806,-48.356808 C 106.50333,-48.356808 105.40275,-48.654418 104.7963,-49.249628 C 104.18986,-49.844838 103.88663,-50.928578 103.88664,-52.500848 L 103.88664,-59.328978 L 102.37052,-59.328978 L 102.37052,-60.934928 L 103.88664,-60.934928 L 103.88664,-64.506218 L 105.96427,-64.506218 z M 118.18302,-47.188838 C 117.59903,-45.691448 117.03002,-44.714398 116.47599,-44.257688 C 115.92195,-43.800988 115.18074,-43.572628 114.25236,-43.572628 L 112.60148,-43.572628 L 112.60148,-45.302118 L 113.81437,-45.302118 C 114.38338,-45.302118 114.82511,-45.436888 115.13957,-45.706418 C 115.45401,-45.975948 115.80216,-46.612338 116.184,-47.615598 L 116.55461,-48.558958 L 111.4672,-60.934928 L 113.65714,-60.934928 L 117.58781,-51.097038 L 121.51847,-60.934928 L 123.70841,-60.934928 L 118.18302,-47.188838 z"
       id="path3699" />
    <path
       style="font-size:23px;font-style:normal;font-weight:normal;fill:#000000;fill-opacity:1;stroke:none;stroke-width:1px;stroke-linecap:butt;stroke-linejoin:miter;stroke-opacity:1;font-family:Bitstream Vera Sans"
       d="M 127.65643,-50.958365 L 130.02606,-50.958365 L 130.02606,-48.105825 L 127.65643,-48.105825 L 127.65643,-50.958365 z M 139.56073,-59.235225 C 138.45265,-59.235215 137.57667,-58.802835 136.9328,-57.938105 C 136.28891,-57.073345 135.96697,-55.888535 135.96698,-54.383655 C 135.96697,-52.878775 136.28704,-51.693955 136.92718,-50.829215 C 137.56731,-49.964465 138.44516,-49.532095 139.56073,-49.532095 C 140.6613,-49.532095 141.53354,-49.966335 142.17743,-50.834835 C 142.82129,-51.703315 143.14323,-52.886255 143.14325,-54.383655 C 143.14323,-55.873555 142.82129,-57.054625 142.17743,-57.926875 C 141.53354,-58.799095 140.6613,-59.235215 139.56073,-59.235225 L 139.56073,-59.235225 z M 139.56073,-60.987175 C 141.35759,-60.987165 142.76889,-60.403175 143.79461,-59.235225 C 144.82032,-58.067245 145.33317,-56.450055 145.33319,-54.383655 C 145.33317,-52.324735 144.82032,-50.709425 143.79461,-49.537715 C 142.76889,-48.365995 141.35759,-47.780145 139.56073,-47.780145 C 137.75636,-47.780145 136.34319,-48.365995 135.32122,-49.537715 C 134.29925,-50.709425 133.78826,-52.324735 133.78826,-54.383655 C 133.78826,-56.450055 134.29925,-58.067245 135.32122,-59.235225 C 136.34319,-60.403175 137.75636,-60.987165 139.56073,-60.987175 L 139.56073,-60.987175 z M 156.03582,-58.752315 C 155.80372,-58.887065 155.55103,-58.986265 155.27777,-59.049915 C 155.00448,-59.113545 154.70313,-59.145365 154.37371,-59.145375 C 153.20574,-59.145365 152.30917,-58.765405 151.68402,-58.005485 C 151.05885,-57.245545 150.74627,-56.154325 150.74627,-54.731805 L 150.74627,-48.105825 L 148.66864,-48.105825 L 148.66864,-60.683955 L 150.74627,-60.683955 L 150.74627,-58.729855 C 151.18051,-59.493515 151.74578,-60.060645 152.44207,-60.431265 C 153.13836,-60.801855 153.98438,-60.987165 154.98016,-60.987175 C 155.1224,-60.987165 155.27963,-60.977805 155.45184,-60.959095 C 155.62403,-60.940365 155.81495,-60.912295 156.02459,-60.874865 L 156.03582,-58.752315 z M 166.50262,-54.540885 C 166.50261,-56.038275 166.19377,-57.198755 165.57611,-58.022335 C 164.95842,-58.845885 164.09181,-59.257675 162.97625,-59.257685 C 161.86817,-59.257675 161.0053,-58.845885 160.38763,-58.022335 C 159.76995,-57.198755 159.46111,-56.038275 159.46112,-54.540885 C 159.46111,-53.050975 159.76995,-51.894235 160.38763,-51.070675 C 161.0053,-50.247105 161.86817,-49.835315 162.97625,-49.835315 C 164.09181,-49.835315 164.95842,-50.247105 165.57611,-51.070675 C 166.19377,-51.894235 166.50261,-53.050975 166.50262,-54.540885 L 166.50262,-54.540885 z M 168.56903,-49.666865 C 168.56901,-47.525585 168.09359,-45.932735 167.14276,-44.888295 C 166.1919,-43.843865 164.73568,-43.321652 162.7741,-43.321647 C 162.04786,-43.321652 161.3628,-43.375932 160.71893,-43.484489 C 160.07504,-43.593054 159.44988,-43.759635 158.84344,-43.984245 L 158.84344,-45.994495 C 159.44988,-45.665075 160.04884,-45.421745 160.64032,-45.264515 C 161.23178,-45.107295 161.83448,-45.028685 162.44842,-45.028675 C 163.80356,-45.028685 164.81804,-45.382445 165.49188,-46.089955 C 166.1657,-46.797475 166.50261,-47.866245 166.50262,-49.296255 L 166.50262,-50.318225 C 166.07585,-49.577015 165.5293,-49.022985 164.86297,-48.656115 C 164.19662,-48.289255 163.39926,-48.105825 162.47088,-48.105825 C 160.92856,-48.105825 159.68572,-48.693555 158.74237,-49.869015 C 157.79901,-51.044465 157.32733,-52.601755 157.32733,-54.540885 C 157.32733,-56.487495 157.79901,-58.048525 158.74237,-59.223995 C 159.68572,-60.399435 160.92856,-60.987165 162.47088,-60.987175 C 163.39926,-60.987165 164.19662,-60.803735 164.86297,-60.436885 C 165.5293,-60.070005 166.07585,-59.515975 166.50262,-58.774775 L 166.50262,-60.683955 L 168.56903,-60.683955 L 168.56903,-49.666865 z"
       id="path3701" />
  </g>
  <g
     id="g3640"
     transform="matrix(0.25039994,0,0,0.21984541,-11.85509,29.612309)">
    <path
       id="path3386"
       d="m 254.194,48.989 c -3.769,5.641 2.111,10.161 2,15.694 -0.099,4.934 -4.398,8.337 -9.268,6.119 -3.264,-1.487 -1.887,-9.292 -0.728,-12.082 1.612,-3.881 2.946,-9.244 7.745,-10.231 l 0.251,0.5 z"
       stroke-miterlimit="10"
       inkscape:connector-curvature="0"
       style="fill:#f9f182;stroke:#000000;stroke-width:2;stroke-miterlimit:10" />
    <path
       id="path3388"
       d="m 250.25,55.945 c 1.263,2.475 3.142,6.535 2.506,9.444 -1.115,5.105 -6.768,2.87 -5.967,-1.674 0.854,0.348 1.491,1.001 1.917,1.849 0.118,-1.817 0.522,-3.188 0.925,-4.848 0.383,-1.583 0.037,-3.6 0.869,-5.021"
       inkscape:connector-curvature="0"
       style="fill:#f1595a" />
    <path
       id="path3390"
       d="m 250.869,58.841 c 0.903,2.022 2.246,5.339 1.792,7.715 -0.798,4.17 -4.839,2.344 -4.267,-1.368 0.611,0.284 1.066,0.817 1.371,1.51 0.084,-1.484 0.373,-2.604 0.661,-3.96 0.274,-1.293 0.026,-2.941 0.622,-4.102"
       inkscape:connector-curvature="0"
       style="fill:#75b2d8" />
    <path
       id="path3392"
       d="m 211.97,57.125 c -1.213,4.368 -11.281,26.051 2.29,22.456 4.12,-1.092 1.543,-7.898 0.967,-11.017 -0.365,-1.983 -0.734,-3.874 -1.201,-5.841 -0.425,-1.791 -1.499,-3.47 -1.806,-5.098 l -0.25,-0.5 z"
       stroke-miterlimit="10"
       inkscape:connector-curvature="0"
       style="fill:#f9f182;stroke:#000000;stroke-width:2;stroke-miterlimit:10" />
    <path
       id="path3394"
       d="m 211.47,67.375 c 0.009,1.417 5.306,11.468 0.001,10.267 -3.412,-0.772 -2.233,-8.955 0.499,-10.267"
       inkscape:connector-curvature="0"
       style="fill:#f1595a" />
    <path
       id="path3396"
       d="m 211.869,70.228 c 0.007,1.058 3.908,8.559 0.001,7.663 -2.514,-0.577 -1.646,-6.684 0.367,-7.663"
       inkscape:connector-curvature="0"
       style="fill:#75b2d8" />
    <path
       id="path3398"
       d="m 178.945,44.432 c -4.286,1.762 -8.427,10.188 -8.756,14.512 -0.317,4.167 3.703,9.804 8.518,8.744 4.822,-1.063 2.281,-9.013 1.17,-12.062 -0.864,-2.369 -0.502,-7.444 -0.432,-11.444 l -0.5,0.25 z"
       stroke-miterlimit="10"
       inkscape:connector-curvature="0"
       style="fill:#f9f182;stroke:#000000;stroke-width:2;stroke-miterlimit:10" />
    <path
       id="path3400"
       d="m 176.445,50.932 c -0.573,1.503 -2.261,2.737 -2.762,4.251 -0.48,1.451 -0.062,3.227 -0.239,4.755 -0.185,1.585 -0.766,2.203 0.113,3.688 0.67,1.133 2.75,2.275 4.082,1.818 2.951,-1.012 -0.39,-4.849 -0.957,-7.007 -0.593,-2.252 -0.237,-5.138 -0.237,-7.505"
       inkscape:connector-curvature="0"
       style="fill:#f1595a" />
    <path
       id="path3402"
       d="m 176.167,55.737 c -0.314,0.875 -1.24,1.594 -1.515,2.475 -0.264,0.844 -0.034,1.878 -0.131,2.768 -0.102,0.922 -0.42,1.282 0.062,2.147 0.367,0.66 1.508,1.325 2.239,1.059 1.619,-0.589 -0.213,-2.823 -0.524,-4.079 -0.326,-1.312 -0.131,-2.992 -0.131,-4.37"
       inkscape:connector-curvature="0"
       style="fill:#75b2d8" />
    <path
       id="path3404"
       d="m 141.294,55.844 c 3.769,5.641 -2.111,10.161 -2,15.694 0.099,4.934 4.399,8.337 9.268,6.119 3.263,-1.487 1.886,-9.292 0.727,-12.082 -1.612,-3.881 -2.946,-9.244 -7.745,-10.231 l -0.25,0.5 z"
       stroke-miterlimit="10"
       inkscape:connector-curvature="0"
       style="fill:#f9f182;stroke:#000000;stroke-width:2;stroke-miterlimit:10" />
    <path
       id="path3406"
       d="m 144.298,76.945 c -2.738,-0.165 -4.033,-3.827 -3.397,-5.991 0.411,0.716 1.853,1.625 2.191,1.998 0.299,-2.466 0.384,-5.788 1.901,-7.937 0.274,1.795 1.285,3.799 1.988,5.545 0.931,-0.618 1.721,-1.591 2.269,-2.721 -0.369,2.448 -0.75,8.77 -4.566,9.106"
       inkscape:connector-curvature="0"
       style="fill:#f1595a" />
    <path
       id="path3408"
       d="m 144.544,76.844 c -1.772,-0.116 -2.611,-2.702 -2.199,-4.23 0.266,0.505 1.199,1.147 1.418,1.41 0.194,-1.741 0.249,-4.086 1.231,-5.604 0.178,1.267 0.832,2.682 1.287,3.915 0.603,-0.437 1.114,-1.124 1.469,-1.921 -0.24,1.729 -0.485,6.192 -2.956,6.429"
       inkscape:connector-curvature="0"
       style="fill:#74b2d8" />
    <path
       id="path3410"
       d="m 206.988,95.61 c -1.109,-0.206 -2.216,-0.408 -3.321,-0.604 -4.975,-0.882 -10.105,-1.001 -15.259,-1.001 -3.774,0 -7.665,-0.304 -11.423,-0.008 -3.728,0.294 -7.288,1.639 -11.021,1.637 -3.809,-0.001 -7.209,-0.595 -11.009,0.342 -6.659,1.641 -13.056,4.173 -19.547,6.354 -3.735,1.254 -7.612,3.098 -11.13,5 -5.11,2.763 -8.347,6.236 -12.631,9.892 -5.973,5.096 -13.26,9.04 -18.249,15.219 -3.69,4.572 -7.499,12.569 -8.772,18.29 -0.754,3.389 -1.939,12.814 2.041,14.647 1.917,0.883 4.14,-0.838 5.631,-1.541 4.367,-2.06 8.783,-4.363 13.358,-5.813 3.509,-1.112 7.785,-2.174 10.702,0.731 3.042,3.028 4.172,7.568 5.383,11.399 0.96,3.039 2.082,5.271 4.667,6.924 3.306,2.115 8.548,2.305 12.439,1.961 5.103,-0.451 9.648,-2.941 13.699,-5.934 4.26,-3.147 6.972,-6.736 10.759,-0.617 1.778,2.874 1.465,6.445 4.732,8.211 4.603,2.488 10.388,0.759 15.037,-0.509 5.923,-1.616 12.41,-0.221 18.499,-2.102 3.646,-1.126 4.373,-2.081 8.061,-0.079 7.723,4.192 20.521,9.479 27.927,2.67 5.505,-5.06 8.358,-12.053 15.957,-13.941 4.616,-1.147 10.643,-0.855 14.836,-2.914 4.946,-2.428 8.661,-6.103 14.067,-8.072 5.547,-2.02 10.429,-2.532 14.948,-6.406 9.277,-7.954 1.758,-23.042 -7.579,-26.951 -5.418,-2.269 -9.211,-5.979 -14.29,-8.627 -6.509,-3.395 -14.658,-5.422 -21.703,-7.451 -11.303,-3.255 -23.767,-7.011 -35.389,-8.719 -3.88,-0.571 -7.668,-1.294 -11.42,-1.988 z"
       inkscape:connector-curvature="0"
       style="fill:#a4dde9" />
    <path
       id="path3412"
       d="m 307.064,199.519 c -0.018,0.006 -0.036,0.013 -0.055,0.019 -8.27,2.835 -16.365,10.26 -24.562,13.987 -17.301,7.866 -35.972,12.765 -54.869,14.688 -19.229,1.957 -41.765,1.674 -60.378,-0.068 -9.123,-0.855 -18.405,-1.836 -27.378,-3.941 -16.072,-3.771 -31.475,-11.943 -47.147,-17.128 -6.494,-2.147 -20.153,-8.491 -24.776,-0.022 -4.203,7.696 -1.988,21.211 -4.24,29.811 -3.523,13.455 -10.827,26.23 6.546,35.029 12.466,6.313 27.861,10.67 42.025,14.012 25.217,5.943 55.937,10.311 82.982,9.273 24.428,-0.938 49.326,-4.236 72.207,-10.904 18.238,-5.313 37.738,-10.168 54.143,-18.594 13.623,-6.998 10.994,-24.338 5.936,-35.451 -2.42,-5.322 -5.662,-10.53 -8.451,-15.944 -1.782,-3.459 -2.632,-7.343 -4.45,-10.775 -2.813,-5.312 -2.782,-5.618 -7.533,-3.992 z"
       inkscape:connector-curvature="0"
       style="fill:#c66cab" />
    <path
       id="path3414"
       d="m 90.089,188.332 c -3.462,2.176 -6.18,6.236 -9.628,8.845 -4.46,3.376 -8.375,5.454 -12.459,9.22 -2.34,2.157 -5.453,3.332 -7.569,5.771 -2.347,2.706 -2.989,6.287 -3.825,9.643 -0.682,2.74 -2.27,5.687 -2.506,8.494 -0.634,7.527 5.673,8.832 11.752,7.215 3.748,-0.997 5.097,-3.399 8.129,-5.408 4.764,-3.154 11.035,-3.683 16.583,-3.162 4.226,0.396 6.161,4.168 7.404,7.76 1.412,4.078 2.717,7.564 5.254,11.084 2.481,3.443 6.633,3.563 10.601,2.947 7.578,-1.177 13.837,0.57 21.216,-2.626 4.493,-1.946 8.186,-5.659 13.083,-6.697 4.398,-0.93 3.327,1.357 4.206,4.272 2.013,6.677 11.016,8.886 16.987,9.948 8.113,1.444 14.918,-3.539 22.577,-5.116 3.189,-0.656 6.598,-2.152 9.766,-2.469 5.317,-0.531 9.364,4.412 14.386,5.364 2.632,0.499 4.824,2.067 7.509,2.733 2.605,0.646 5.361,1.008 8.049,1.006 2.167,-0.001 4.005,0.612 6.156,0.963 3.147,0.513 6.934,0.287 9.327,-2.074 0.862,-0.852 1.42,-1.799 2.425,-2.533 1.491,-1.09 3.209,-1.758 4.457,-3.184 1.729,-1.976 1.627,-5.12 3.291,-6.979 1.643,-1.834 5.438,-2.688 7.748,-3.122 5.757,-1.083 11.703,-0.287 17.411,-1.762 8.771,-2.267 14.373,-11.172 23.738,-11.135 3.604,0.015 7.33,0.229 10.932,0.008 3.559,-0.22 10.816,-2.127 12.481,-5.529 1.48,-3.022 0.92,-10.744 -0.271,-13.803 -2.439,-6.257 -8.598,-7.51 -14.257,-9.332 -5.226,-1.682 -6.337,-8.262 -11.374,-10.206 -3.719,-1.436 -4.925,0.156 -7.711,2.101 -2.919,2.037 -6.395,2.933 -9.558,4.494 -5.342,2.637 -11.063,4.359 -16.499,6.91 -4.172,1.958 -7.853,5.327 -12.389,6.636 -2.438,0.702 -4.686,0.847 -7.007,1.65 -2.915,1.01 -5.798,2.281 -8.746,3.33 -4.467,1.589 -9.597,2.457 -14.165,3.4 -8.281,1.711 -17.457,3.927 -25.885,4.008 -6.448,0.063 -12.162,0.328 -18.296,-1.594 -7.387,-2.313 -14.067,-1.239 -21.466,-0.933 -3.068,0.127 -5.134,-0.877 -7.854,-2.18 -3.796,-1.819 -6.652,-1.932 -10.819,-2.103 -9.512,-0.391 -18.65,-3.661 -27.368,-7.254 -3.274,-1.35 -28.66,-13.166 -25.575,-18.603"
       inkscape:connector-curvature="0"
       style="fill:#a3dcea" />
    <path
       id="path3416"
       d="m 285.976,153.883 c -0.709,0.061 -1.42,0.151 -2.15,0.299 -5.041,1.015 -9.003,3.418 -12.993,6.48 -3.237,2.484 -6.98,5.322 -11.093,6.122 -3.938,0.766 -7.938,-0.559 -11.998,0.221 -3.261,0.626 -4.595,2.97 -5.85,6.007 -1.073,2.598 -1.849,5.105 -3.577,7.333 -1.764,2.272 -5.732,3.362 -8.275,4.458 -2.934,1.264 -5.036,1.532 -8.137,0.427 -5.561,-1.98 -9.919,-7.36 -15.889,-8.226 -4.73,-0.686 -11.501,0.619 -15.944,2.29 -6.574,2.473 -18.25,4.224 -24.344,-1.004 -2.513,-2.156 -3.893,-9.867 -7.181,-10.273 -4.247,-0.525 -7.289,4.153 -10.235,6.495 -6.323,5.025 -18.042,6.774 -24.538,0.966 -2.342,-2.096 -2.191,-5.271 -3.457,-8.067 -1.769,-3.905 -3.124,-11.171 -7.989,-12.412 -3.229,-0.824 -6.753,2.545 -9.444,3.982 -3.775,2.016 -9.79,2.53 -11.786,6.361 -1.691,3.246 -2.167,8.711 -2.663,12.336 -1.138,8.336 1.047,15.445 8.378,20.159 9.815,6.313 21.938,10.67 33.09,14.011 19.856,5.943 44.044,10.312 65.34,9.273 19.234,-0.938 38.838,-4.235 56.855,-10.903 14.359,-5.313 29.715,-10.169 42.631,-18.594 7.272,-4.745 8.44,-14.194 7.691,-22.15 -0.396,-4.206 -1.337,-8.386 -2.697,-12.383 -2.237,-6.576 -3.655,-3.759 -9.388,-3.421 -1.534,0.091 -2.94,0.092 -4.357,0.213 z"
       inkscape:connector-curvature="0"
       style="fill:#c66cab" />
    <path
       id="path3418"
       d="m 312.992,197.649 c -1.566,-2.703 -2.054,-0.426 -5.835,0.868 -0.018,0.006 -0.036,0.013 -0.055,0.019 -8.27,2.835 -16.365,10.26 -24.562,13.987 -17.301,7.866 -35.972,12.765 -54.869,14.688 -19.229,1.957 -41.765,1.674 -60.378,-0.068 -9.123,-0.855 -18.405,-1.836 -27.378,-3.941 -16.072,-3.771 -31.475,-11.943 -47.147,-17.128 -6.494,-2.147 -20.153,-8.491 -24.776,-0.022 -0.796,1.457 -1.361,3.123 -1.771,4.925"
       stroke-miterlimit="10"
       inkscape:connector-curvature="0"
       style="fill:none;stroke:#000000;stroke-width:2;stroke-miterlimit:10" />
    <path
       id="path3420"
       d="m 63,238.558 c -0.097,0.494 0.122,-0.467 0,0 -3.523,13.455 -10.075,23.535 7.297,32.334 12.466,6.313 27.861,10.67 42.025,14.012 25.217,5.943 55.937,10.311 82.982,9.273 24.428,-0.938 49.326,-4.236 72.207,-10.904 18.238,-5.313 37.738,-10.168 54.143,-18.594 13.623,-6.998 12.295,-25.027 5.936,-35.451 -3.709,-6.079 -1.551,-2.168 -3.087,-4.94"
       stroke-miterlimit="10"
       inkscape:connector-curvature="0"
       style="fill:none;stroke:#000000;stroke-width:2;stroke-miterlimit:10" />
    <path
       id="path3422"
       d="m 299.479,186.713 c 6.799,2.549 7.575,6.521 12.521,10.937"
       stroke-miterlimit="10"
       inkscape:connector-curvature="0"
       style="fill:none;stroke:#000000;stroke-width:2;stroke-miterlimit:10" />
    <path
       id="path3424"
       d="m 73.519,202.035 c 7.031,-2.842 8.347,-8.275 15.543,-13.333"
       stroke-miterlimit="10"
       inkscape:connector-curvature="0"
       style="fill:none;stroke:#000000;stroke-width:2;stroke-miterlimit:10" />
    <path
       id="path3426"
       d="m 71.297,202.754 c -7.083,4.781 -17.38,20.649 -16.818,28.472 1.259,17.535 24.641,-3.646 33.582,-3.533 11.38,0.145 10.312,15.195 16.185,20.16 5.158,4.359 20.463,3.967 26.654,1.967 7.346,-2.375 10.899,-8.893 19.589,-9.689 3.794,11.98 10.838,14.936 25.326,14.938 9.678,0.002 14.489,-3.715 22.72,-5.342 8.103,-1.6 15.351,3.27 22.669,5.639 9.586,3.102 20.576,4.285 28.465,-1.658 8.279,-6.24 5.461,-13.855 18.82,-14.547 14.461,-0.746 15.709,2.023 26.533,-6.783 6.641,-5.4 16.305,-3.498 25.215,-6.447 10.621,-3.518 12.322,-7.104 8.637,-16.052 -1.902,-4.616 -9.75,-12.215 -16.873,-12.228"
       stroke-miterlimit="10"
       inkscape:connector-curvature="0"
       style="fill:none;stroke:#000000;stroke-width:2;stroke-miterlimit:10" />
    <path
       id="path3428"
       d="m 91.095,165.342 c -2.774,13.454 -7.964,23.697 5.715,32.496 9.815,6.313 21.938,10.67 33.09,14.011 19.856,5.943 44.044,10.312 65.34,9.273 19.234,-0.938 38.837,-4.235 56.855,-10.903 14.359,-5.313 29.715,-10.169 42.631,-18.594 10.727,-6.998 8.656,-24.338 4.674,-35.453 -0.83,-2.318 -0.79,-2.313 -1.783,-4.615"
       stroke-miterlimit="10"
       inkscape:connector-curvature="0"
       style="fill:none;stroke:#000000;stroke-width:2;stroke-miterlimit:10" />
    <path
       id="path3430"
       d="m 96.935,128.373 c 7.381,-3.791 14.014,-13.839 22.203,-18.706 7.718,-4.586 14.936,-8.579 23.674,-10.6 15.445,-3.57 31.386,-5.354 47.606,-5.132 18.75,0.257 38.314,4.642 56.039,9.821 14.354,4.194 31.584,7.657 41.869,19.318"
       stroke-miterlimit="10"
       inkscape:connector-curvature="0"
       style="fill:none;stroke:#000000;stroke-width:2;stroke-miterlimit:10" />
    <path
       id="path3432"
       d="m 97.598,129.697 c -5.577,4.781 -13.685,20.649 -13.243,28.472 0.992,17.538 19.402,-3.646 26.442,-3.533 8.96,0.145 8.12,15.197 12.744,20.162 4.062,4.36 16.113,3.967 20.987,1.967 5.784,-2.375 8.582,-8.893 15.424,-9.689 2.987,11.98 8.534,14.937 19.941,14.938 7.62,10e-4 11.408,-3.715 17.889,-5.342 6.379,-1.601 12.086,3.269 17.85,5.639 7.547,3.101 16.201,4.284 22.412,-1.658 6.52,-6.24 4.301,-13.856 14.818,-14.547 11.387,-0.747 12.369,2.023 20.893,-6.784 5.229,-5.403 12.838,-3.499 19.854,-6.45 8.363,-3.517 9.703,-7.104 6.801,-16.052 -1.498,-4.616 -7.137,-15.056 -12.746,-15.069"
       stroke-miterlimit="10"
       inkscape:connector-curvature="0"
       style="fill:none;stroke:#000000;stroke-width:2;stroke-miterlimit:10" />
    <path
       id="path3434"
       d="m 173,105.67 c -0.265,1.508 0.045,3.075 1.333,4"
       stroke-miterlimit="10"
       inkscape:connector-curvature="0"
       style="fill:none;stroke:#000000;stroke-width:2;stroke-miterlimit:10" />
    <path
       id="path3436"
       d="m 67,206.668 c -1.022,3.544 -0.993,8.845 -4,11.667"
       stroke-miterlimit="10"
       inkscape:connector-curvature="0"
       style="fill:none;stroke:#000000;stroke-width:2;stroke-miterlimit:10" />
    <path
       id="path3438"
       d="m 77.798,247.487 c 0.8,-2.942 2.777,-5.729 6.019,-5.668 3.103,0.059 7.709,2.411 7.699,5.857 -0.017,6.421 -9.821,11.767 -7.804,18.988 l -0.277,0 c -1.69,-7.305 -12.857,-7.298 -15.95,-12.926 -1.659,-3.02 1.256,-7.292 3.951,-8.831 2.816,-1.607 5.886,-0.108 7.999,2.091 l -1.637,0.489 z"
       stroke-miterlimit="10"
       inkscape:connector-curvature="0"
       style="fill:#ed1563;stroke:#ed1563;stroke-width:2;stroke-miterlimit:10" />
    <path
       id="path3440"
       d="m 312.907,239.989 c 2.199,-2.112 5.328,-3.486 8.076,-1.767 2.631,1.646 5.372,6.032 3.591,8.983 -3.315,5.498 -14.473,5.041 -16.457,12.271 l -0.238,-0.143 c 2.307,-7.134 -7.272,-12.87 -7.032,-19.288 0.131,-3.442 4.828,-5.607 7.931,-5.542 3.242,0.07 5.104,2.935 5.785,5.907 l -1.656,-0.421 z"
       stroke-miterlimit="10"
       inkscape:connector-curvature="0"
       style="fill:#ed1563;stroke:#ed1563;stroke-width:2;stroke-miterlimit:10" />
    <path
       id="path3442"
       d="m 107.733,181.948 c 0.8,-2.942 2.777,-5.729 6.019,-5.668 3.103,0.059 7.709,2.411 7.699,5.857 -0.017,6.421 -9.82,11.767 -7.804,18.988 l -0.277,0 c -1.69,-7.305 -12.857,-7.298 -15.95,-12.926 -1.659,-3.02 1.256,-7.292 3.951,-8.831 2.816,-1.607 5.886,-0.108 7.999,2.091 l -1.637,0.489 z"
       stroke-miterlimit="10"
       inkscape:connector-curvature="0"
       style="fill:#ed1563;stroke:#ed1563;stroke-width:2;stroke-miterlimit:10" />
    <path
       id="path3444"
       d="m 281.571,168.711 c 1.674,-2.548 4.42,-4.583 7.481,-3.518 2.931,1.02 6.578,4.687 5.499,7.959 -2.011,6.098 -12.99,8.134 -13.316,15.625 l -0.264,-0.086 c 0.662,-7.469 -9.954,-10.931 -11.145,-17.241 -0.641,-3.386 3.459,-6.541 6.498,-7.167 3.175,-0.653 5.628,1.726 6.953,4.473 l -1.706,-0.045 z"
       stroke-miterlimit="10"
       inkscape:connector-curvature="0"
       style="fill:#ed1563;stroke:#ed1563;stroke-width:2;stroke-miterlimit:10" />
    <path
       id="path3446"
       d="m 153.557,190.033 c 2.446,-1.821 5.722,-2.792 8.234,-0.743 2.404,1.961 4.576,6.656 2.44,9.361 -3.978,5.04 -14.99,3.192 -17.862,10.12 l -0.218,-0.172 c 3.18,-6.791 -5.608,-13.679 -4.567,-20.016 0.559,-3.4 5.49,-4.96 8.56,-4.508 3.208,0.474 4.697,3.549 5.001,6.583 l -1.588,-0.625 z"
       stroke-miterlimit="10"
       inkscape:connector-curvature="0"
       style="fill:#ed1563;stroke:#ed1563;stroke-width:2;stroke-miterlimit:10" />
    <path
       id="path3448"
       d="m 198.54,195.28 c 0.8,-2.942 2.777,-5.729 6.019,-5.668 3.103,0.059 7.709,2.411 7.699,5.857 -0.017,6.421 -9.82,11.767 -7.804,18.988 l -0.277,0 c -1.69,-7.305 -12.857,-7.298 -15.95,-12.926 -1.659,-3.02 1.256,-7.292 3.951,-8.831 2.816,-1.607 5.886,-0.108 7.999,2.091 l -1.637,0.489 z"
       stroke-miterlimit="10"
       inkscape:connector-curvature="0"
       style="fill:#ed1563;stroke:#ed1563;stroke-width:2;stroke-miterlimit:10" />
    <path
       id="path3450"
       d="m 244.437,188.766 c 0.725,-2.962 2.63,-5.799 5.872,-5.82 3.104,-0.021 7.769,2.213 7.847,5.658 0.147,6.419 -9.517,12.014 -7.315,19.183 l -0.276,0.007 c -1.877,-7.259 -13.04,-6.967 -16.277,-12.514 -1.734,-2.976 1.07,-7.322 3.725,-8.929 2.774,-1.679 5.882,-0.259 8.05,1.885 l -1.626,0.53 z"
       stroke-miterlimit="10"
       inkscape:connector-curvature="0"
       style="fill:#ed1563;stroke:#ed1563;stroke-width:2;stroke-miterlimit:10" />
    <path
       id="path3452"
       d="m 124.798,263.599 c 0.8,-2.942 2.777,-5.729 6.019,-5.668 3.103,0.059 7.709,2.411 7.699,5.857 -0.017,6.421 -9.82,11.767 -7.804,18.988 l -0.277,0 c -1.69,-7.305 -12.857,-7.298 -15.95,-12.926 -1.659,-3.02 1.256,-7.292 3.951,-8.831 2.816,-1.607 5.886,-0.108 7.999,2.091 l -1.637,0.489 z"
       stroke-miterlimit="10"
       inkscape:connector-curvature="0"
       style="fill:#ed1563;stroke:#ed1563;stroke-width:2;stroke-miterlimit:10" />
    <path
       id="path3454"
       d="m 265.043,256.422 c 1.063,-2.857 3.286,-5.454 6.508,-5.099 3.085,0.34 7.459,3.102 7.137,6.532 -0.6,6.393 -10.849,10.827 -9.495,18.201 l -0.276,-0.024 c -1.021,-7.429 -12.143,-8.436 -14.71,-14.32 -1.38,-3.158 1.912,-7.148 4.735,-8.437 2.949,-1.345 5.871,0.427 7.776,2.809 l -1.675,0.338 z"
       stroke-miterlimit="10"
       inkscape:connector-curvature="0"
       style="fill:#ed1563;stroke:#ed1563;stroke-width:2;stroke-miterlimit:10" />
    <path
       id="path3456"
       d="m 216.504,266.848 c 2.199,-2.111 5.329,-3.484 8.077,-1.765 2.63,1.646 5.37,6.033 3.59,8.983 -3.317,5.498 -14.474,5.04 -16.459,12.27 l -0.238,-0.143 c 2.308,-7.134 -7.271,-12.871 -7.03,-19.288 0.131,-3.443 4.829,-5.607 7.931,-5.541 3.242,0.069 5.104,2.935 5.785,5.907 l -1.656,-0.423 z"
       stroke-miterlimit="10"
       inkscape:connector-curvature="0"
       style="fill:#ed1563;stroke:#ed1563;stroke-width:2;stroke-miterlimit:10" />
    <path
       id="path3458"
       d="m 175.29,271.142 c 2.984,-0.628 6.366,-0.136 7.786,2.778 1.36,2.789 1.361,7.962 -1.712,9.521 -5.725,2.907 -14.946,-3.389 -20.459,1.693 l -0.126,-0.247 c 5.735,-4.829 0.646,-14.77 4.25,-20.084 1.933,-2.853 7.064,-2.2 9.661,-0.502 2.713,1.776 2.776,5.192 1.779,8.074 l -1.179,-1.233 z"
       stroke-miterlimit="10"
       inkscape:connector-curvature="0"
       style="fill:#ed1563;stroke:#ed1563;stroke-width:2;stroke-miterlimit:10" />
    <path
       id="path3460"
       d="m 74.603,208.524 c -5.051,4.923 -2.411,12.823 4.723,8.25 6.026,-3.863 2.13,-12.928 -4.057,-8.917 l -0.666,0.667 z"
       stroke-miterlimit="10"
       inkscape:connector-curvature="0"
       style="fill:#ef4779;stroke:#ef4779;stroke-width:2;stroke-miterlimit:10" />
    <path
       id="path3462"
       d="m 79.337,210.806 c -0.397,1.097 -2.077,1.429 -2.17,2.63 -0.087,1.111 0.898,1.713 2,1.535 0.92,-0.148 2.454,-2.02 2.174,-3.16 -0.272,-1.108 -1.489,-0.871 -2.503,-0.838"
       inkscape:connector-curvature="0"
       style="fill:#e8e8e8" />
    <path
       id="path3464"
       d="m 76.235,210.058 c -1.973,-0.032 -3.344,4.864 -1.712,6.011 -0.202,-0.013 -0.394,0.017 -0.594,-0.027 -1.438,-2.425 -2.19,-7.077 2.306,-6.483"
       inkscape:connector-curvature="0"
       style="fill:#e8e8e8" />
    <path
       id="path3466"
       d="m 285.379,137.085 c -1.108,6.966 5.73,11.722 8.718,3.792 2.522,-6.699 -6.017,-11.639 -8.581,-4.726 l -0.137,0.934 z"
       stroke-miterlimit="10"
       inkscape:connector-curvature="0"
       style="fill:#555ba8;stroke:#555ba8;stroke-width:2;stroke-miterlimit:10" />
    <path
       id="path3468"
       d="m 290.539,136.084 c 0.336,1.118 -0.813,2.388 -0.17,3.407 0.596,0.942 1.744,0.836 2.521,0.036 0.648,-0.669 0.76,-3.085 -0.146,-3.833 -0.88,-0.727 -1.714,0.191 -2.507,0.823"
       inkscape:connector-curvature="0"
       style="fill:#e8e8e8" />
    <path
       id="path3470"
       d="m 287.604,137.339 c -1.601,1.153 0.227,5.898 2.22,5.842 -0.17,0.111 -0.306,0.249 -0.492,0.333 -2.603,-1.084 -5.985,-4.365 -2.026,-6.576"
       inkscape:connector-curvature="0"
       style="fill:#e8e8e8" />
    <path
       id="path3472"
       d="m 117.606,237.396 c -2.882,6.438 2.484,12.809 7.431,5.929 4.178,-5.812 -2.782,-12.803 -7.057,-6.795 l -0.374,0.866 z"
       stroke-miterlimit="10"
       inkscape:connector-curvature="0"
       style="fill:#555ba8;stroke:#555ba8;stroke-width:2;stroke-miterlimit:10" />
    <path
       id="path3474"
       d="m 122.849,237.771 c 0.034,1.166 -1.404,2.094 -1.049,3.245 0.329,1.064 1.465,1.262 2.424,0.69 0.801,-0.478 1.538,-2.782 0.856,-3.739 -0.661,-0.93 -1.705,-0.261 -2.635,0.144"
       inkscape:connector-curvature="0"
       style="fill:#e8e8e8" />
    <path
       id="path3476"
       d="m 119.689,238.219 c -1.846,0.697 -1.317,5.755 0.623,6.22 -0.192,0.063 -0.36,0.16 -0.562,0.192 -2.23,-1.724 -4.644,-5.771 -0.245,-6.877"
       inkscape:connector-curvature="0"
       style="fill:#e8e8e8" />
    <path
       id="path3478"
       d="m 164.537,236.508 c -0.071,7.053 7.393,10.751 9.18,2.468 1.509,-6.997 -7.664,-10.627 -9.183,-3.411 l 0.003,0.943 z"
       stroke-miterlimit="10"
       inkscape:connector-curvature="0"
       style="fill:#ef4779;stroke:#ef4779;stroke-miterlimit:10" />
    <path
       id="path3480"
       d="m 169.493,234.759 c 0.497,1.056 -0.452,2.48 0.334,3.394 0.727,0.846 1.848,0.571 2.499,-0.335 0.543,-0.757 0.298,-3.164 -0.708,-3.77 -0.978,-0.589 -1.667,0.44 -2.358,1.183"
       inkscape:connector-curvature="0"
       style="fill:#e8e8e8" />
    <path
       id="path3482"
       d="m 166.775,236.431 c -1.414,1.376 1.091,5.802 3.055,5.453 -0.152,0.134 -0.266,0.291 -0.438,0.401 -2.733,-0.689 -6.563,-3.437 -2.971,-6.207"
       inkscape:connector-curvature="0"
       style="fill:#e8e8e8" />
    <path
       id="path3484"
       d="m 236.936,242.48 c -6.385,2.996 -6.478,11.326 1.761,9.342 6.958,-1.677 6.247,-11.517 -0.912,-9.754 l -0.849,0.412 z"
       stroke-miterlimit="10"
       inkscape:connector-curvature="0"
       style="fill:#8cc861;stroke:#8cc861;stroke-width:2;stroke-miterlimit:10" />
    <path
       id="path3486"
       d="m 240.662,246.187 c -0.734,0.905 -2.431,0.669 -2.912,1.773 -0.446,1.021 0.286,1.912 1.387,2.105 0.918,0.161 2.979,-1.104 3.088,-2.274 0.107,-1.136 -1.121,-1.31 -2.09,-1.61"
       inkscape:connector-curvature="0"
       style="fill:#e8e8e8" />
    <path
       id="path3488"
       d="m 237.976,244.463 c -1.854,-0.676 -4.753,3.501 -3.586,5.119 -0.188,-0.079 -0.378,-0.113 -0.552,-0.221 -0.565,-2.762 0.247,-7.404 4.302,-5.37"
       inkscape:connector-curvature="0"
       style="fill:#e8e8e8" />
    <path
       id="path3490"
       d="m 272.165,222.643 c -0.822,7.005 6.205,11.478 8.865,3.433 2.246,-6.796 -6.488,-11.384 -8.768,-4.371 l -0.097,0.938 z"
       stroke-miterlimit="10"
       inkscape:connector-curvature="0"
       style="fill:#555ba8;stroke:#555ba8;stroke-width:2;stroke-miterlimit:10" />
    <path
       id="path3492"
       d="m 277.279,221.432 c 0.382,1.103 -0.713,2.418 -0.029,3.41 0.633,0.918 1.776,0.765 2.52,-0.067 0.621,-0.694 0.634,-3.114 -0.302,-3.823 -0.909,-0.689 -1.705,0.261 -2.472,0.925"
       inkscape:connector-curvature="0"
       style="fill:#e8e8e8" />
    <path
       id="path3494"
       d="m 274.398,222.805 c -1.553,1.218 0.467,5.885 2.457,5.747 -0.166,0.118 -0.297,0.262 -0.479,0.354 -2.645,-0.978 -6.16,-4.117 -2.293,-6.488"
       inkscape:connector-curvature="0"
       style="fill:#e8e8e8" />
    <path
       id="path3496"
       d="m 311.472,212.12 c -1.692,6.847 4.72,12.164 8.366,4.515 3.079,-6.461 -5.013,-12.105 -8.151,-5.434 l -0.215,0.919 z"
       stroke-miterlimit="10"
       inkscape:connector-curvature="0"
       style="fill:#ef4778;stroke:#ef4778;stroke-width:2;stroke-miterlimit:10" />
    <path
       id="path3498"
       d="m 316.698,211.559 c 0.24,1.143 -1.011,2.311 -0.456,3.38 0.513,0.99 1.666,0.981 2.508,0.249 0.703,-0.611 1.019,-3.011 0.179,-3.831 -0.815,-0.799 -1.724,0.045 -2.567,0.608"
       inkscape:connector-curvature="0"
       style="fill:#e8e8e8" />
    <path
       id="path3500"
       d="m 313.668,212.561 c -1.692,1.014 -0.273,5.896 1.717,6.01 -0.178,0.096 -0.325,0.222 -0.519,0.29 -2.501,-1.301 -5.595,-4.855 -1.462,-6.725"
       inkscape:connector-curvature="0"
       style="fill:#e8e8e8" />
    <path
       id="path3502"
       d="m 92.228,147.579 c -5.051,4.923 -2.411,12.823 4.723,8.25 6.025,-3.863 2.131,-12.928 -4.057,-8.917 l -0.666,0.667 z"
       stroke-miterlimit="10"
       inkscape:connector-curvature="0"
       style="fill:#555ba8;stroke:#555ba8;stroke-width:2;stroke-miterlimit:10" />
    <path
       id="path3504"
       d="m 96.962,149.86 c -0.398,1.097 -2.077,1.429 -2.171,2.63 -0.087,1.111 0.897,1.713 1.999,1.535 0.92,-0.148 2.454,-2.02 2.174,-3.16 -0.271,-1.108 -1.488,-0.871 -2.502,-0.838"
       inkscape:connector-curvature="0"
       style="fill:#e8e8e8" />
    <path
       id="path3506"
       d="m 93.86,149.112 c -1.973,-0.032 -3.344,4.864 -1.712,6.011 -0.202,-0.013 -0.394,0.017 -0.594,-0.027 -1.438,-2.425 -2.19,-7.077 2.306,-6.483"
       inkscape:connector-curvature="0"
       style="fill:#e8e8e8" />
    <path
       id="path3508"
       d="m 135.957,141.023 c -5.051,4.923 -2.411,12.823 4.723,8.25 6.025,-3.863 2.131,-12.928 -4.057,-8.917 l -0.666,0.667 z"
       stroke-miterlimit="10"
       inkscape:connector-curvature="0"
       style="fill:#ef4779;stroke:#ef4779;stroke-miterlimit:10" />
    <path
       id="path3510"
       d="m 140.692,143.305 c -0.398,1.097 -2.077,1.429 -2.171,2.63 -0.087,1.111 0.897,1.713 1.999,1.535 0.92,-0.148 2.454,-2.02 2.174,-3.16 -0.271,-1.108 -1.488,-0.871 -2.502,-0.838"
       inkscape:connector-curvature="0"
       style="fill:#e8e8e8" />
    <path
       id="path3512"
       d="m 137.589,142.557 c -1.973,-0.032 -3.344,4.864 -1.712,6.011 -0.202,-0.013 -0.394,0.017 -0.594,-0.027 -1.438,-2.425 -2.19,-7.077 2.306,-6.483"
       inkscape:connector-curvature="0"
       style="fill:#e8e8e8" />
    <path
       id="path3514"
       d="m 175.222,164.069 c -5.051,4.923 -2.411,12.823 4.723,8.25 6.025,-3.863 2.131,-12.928 -4.057,-8.917 l -0.666,0.667 z"
       stroke-miterlimit="10"
       inkscape:connector-curvature="0"
       style="fill:#555ba8;stroke:#555ba8;stroke-width:2;stroke-miterlimit:10" />
    <path
       id="path3516"
       d="m 179.957,166.351 c -0.398,1.097 -2.077,1.429 -2.171,2.63 -0.087,1.111 0.897,1.713 1.999,1.535 0.92,-0.148 2.454,-2.02 2.174,-3.16 -0.271,-1.108 -1.488,-0.871 -2.502,-0.838"
       inkscape:connector-curvature="0"
       style="fill:#e8e8e8" />
    <path
       id="path3518"
       d="m 176.854,165.603 c -1.973,-0.032 -3.344,4.864 -1.712,6.011 -0.202,-0.013 -0.394,0.017 -0.594,-0.027 -1.438,-2.425 -2.19,-7.077 2.306,-6.483"
       inkscape:connector-curvature="0"
       style="fill:#e8e8e8" />
    <path
       id="path3520"
       d="m 214.031,151.146 c -5.052,4.923 -2.411,12.823 4.723,8.25 6.025,-3.863 2.131,-12.928 -4.057,-8.917 l -0.666,0.667 z"
       stroke-miterlimit="10"
       inkscape:connector-curvature="0"
       style="fill:#8cc861;stroke:#8cc861;stroke-width:2;stroke-miterlimit:10" />
    <path
       id="path3522"
       d="m 218.766,153.427 c -0.398,1.097 -2.077,1.429 -2.171,2.63 -0.087,1.111 0.897,1.713 1.999,1.535 0.92,-0.148 2.454,-2.02 2.174,-3.16 -0.271,-1.108 -1.488,-0.871 -2.502,-0.838"
       inkscape:connector-curvature="0"
       style="fill:#e8e8e8" />
    <path
       id="path3524"
       d="m 215.663,152.679 c -1.973,-0.032 -3.345,4.864 -1.712,6.011 -0.203,-0.013 -0.395,0.017 -0.594,-0.027 -1.438,-2.425 -2.191,-7.077 2.306,-6.483"
       inkscape:connector-curvature="0"
       style="fill:#e8e8e8" />
    <path
       id="path3526"
       d="m 255.599,151.146 c -5.052,4.923 -2.411,12.823 4.724,8.25 6.025,-3.863 2.131,-12.928 -4.057,-8.917 l -0.667,0.667 z"
       stroke-miterlimit="10"
       inkscape:connector-curvature="0"
       style="fill:#ef4779;stroke:#ef4779;stroke-width:2;stroke-miterlimit:10" />
    <path
       id="path3528"
       d="m 260.334,153.427 c -0.398,1.097 -2.078,1.429 -2.172,2.63 -0.086,1.111 0.898,1.713 2,1.535 0.92,-0.148 2.453,-2.02 2.174,-3.16 -0.271,-1.108 -1.488,-0.871 -2.502,-0.838"
       inkscape:connector-curvature="0"
       style="fill:#e8e8e8" />
    <path
       id="path3530"
       d="m 257.23,152.679 c -1.973,-0.032 -3.344,4.864 -1.712,6.011 -0.202,-0.013 -0.394,0.017 -0.594,-0.027 -1.438,-2.425 -2.19,-7.077 2.306,-6.483"
       inkscape:connector-curvature="0"
       style="fill:#e8e8e8" />
    <path
       id="path3532"
       d="m 203.667,192.338 c 2.272,2.19 4.194,4.775 3.048,8.12 -0.407,1.191 -1.187,3.13 -1.832,4.226 -0.361,0.613 -1.155,1.014 -1.534,1.667 -0.41,0.708 -0.449,1.643 -0.933,2.36 1.275,-0.561 2.606,-2.438 3.611,-3.498 1.147,-1.21 2.236,-2.343 2.764,-3.952 0.456,-1.392 0.646,-2.794 0.542,-4.261 -0.129,-1.82 -0.84,-2.328 -1.524,-3.804 -1.315,-0.244 -2.734,-0.711 -4.142,-0.692"
       inkscape:connector-curvature="0"
       style="fill:#e8e8e8" />
    <path
       id="path3534"
       d="m 147.333,188.338 c -1.993,0.972 -0.65,5.272 -0.07,6.641 0.967,2.279 1.527,4.712 2.413,7.023 -2.602,-0.767 -2.511,-2.483 -3.534,-4.427 -0.537,-1.02 -1.361,-1.751 -1.805,-2.927 -1.081,-2.863 0.267,-5.402 2.996,-6.477"
       inkscape:connector-curvature="0"
       style="fill:#e8e8e8" />
    <path
       id="path3536"
       d="m 249.333,202.672 c -1.305,-0.386 -2.265,-2.712 -3.332,-3.676 -1.843,-1.663 -4.576,-3.081 -5.869,-5.186 2.936,0.788 5.266,3.578 8.425,2.73 1.241,-0.333 2.674,-1.744 3.646,-2.662 0.878,-0.829 1.338,-1.932 1.297,-3.084 -0.011,2.748 -0.615,4.668 -1.857,7.063 -0.879,1.695 -2.46,3.563 -2.976,5.315"
       inkscape:connector-curvature="0"
       style="fill:#e8e8e8" />
    <path
       id="path3538"
       d="m 109.833,180.338 c 2.398,-2.258 9.206,-3.586 9.633,1.271 0.202,2.292 -2.031,4.267 -2.968,6.22 -1.245,2.596 -1.992,4.726 -1.999,7.541 0,-1.627 0.06,-3.14 0.255,-4.733 0.275,-2.246 0.83,-3.983 1.249,-6.137 0.418,-2.153 0.423,-3.558 -1.675,-4.162 -1.392,-0.401 -2.679,-0.494 -4.162,-0.5"
       inkscape:connector-curvature="0"
       style="fill:#e8e8e8" />
    <path
       id="path3540"
       d="m 272.5,171.176 c 0.018,-2.827 2.094,-4.36 4.527,-4.333 0.329,0.003 0.799,-0.089 1.122,-0.003 0.661,0.175 0.866,0.632 1.347,0.812 1.2,0.449 2.453,0.338 3.813,0.066 2.13,-0.427 5.02,-1.642 6.683,0.298 1.283,1.496 0.94,5.296 -0.366,6.916 -0.559,-0.45 -0.479,-1.173 -0.946,-1.758 -0.609,-0.764 -1.562,-0.941 -2.346,-1.368 -1.726,-0.94 -3.091,-1.373 -5.137,-1.466 -2.988,-0.135 -5.8,0.218 -8.696,0.504"
       inkscape:connector-curvature="0"
       style="fill:#e8e8e8" />
    <path
       id="path3542"
       d="m 72.5,247.839 c -1.092,3.346 1.991,5.141 4.319,6.333 2.185,1.119 3.839,2.458 4.748,4.645 -1.833,-0.612 -3.734,-1.53 -5.66,-2.273 -1.776,-0.686 -4.073,-1.151 -5.75,-2.075 -2.964,-1.635 -0.603,-5.795 2.176,-6.296"
       inkscape:connector-curvature="0"
       style="fill:#e8e8e8" />
    <path
       id="path3544"
       d="m 121,272.001 c 2.127,2.447 6.156,3.773 7.317,7.003 0.901,-0.51 2.194,-2.896 3.034,-3.854 1.145,-1.306 1.768,-2.64 2.137,-4.325 -1.849,1.68 -4.31,2.538 -6.802,2.352 -2.987,-0.224 -4.846,-3.085 -7.441,-3.661 0.7,0.752 1.172,1.634 1.921,2.318"
       inkscape:connector-curvature="0"
       style="fill:#e8e8e8" />
    <path
       id="path3546"
       d="m 169.667,266.004 c 2.529,-0.152 6.394,1.039 7.007,3.793 0.383,1.719 -0.631,3.186 0.957,4.516 1.582,1.326 2.88,0.921 3.207,3.487 0.233,1.833 -0.456,3.867 -1.821,5.134 -0.044,-1.23 0.279,-2.833 -0.333,-3.921 -0.922,-1.638 -3.248,-1.632 -3.862,-3.668 -0.652,-2.16 0.633,-4.11 -1.058,-6.084 -1.025,-1.197 -3.06,-1.893 -4.264,-2.924"
       inkscape:connector-curvature="0"
       style="fill:#e8e8e8" />
    <path
       id="path3548"
       d="m 214,280.837 c 2.457,-0.671 5.528,-1.706 7.676,-2.987 0.722,-0.431 1.378,-1.012 2.005,-1.587 0.555,-0.509 1.736,-1.239 2.154,-1.926 1.423,-2.336 -1.086,-8.014 -4.118,-7.012 1.825,1.932 1.62,6.272 -0.348,7.987 -2.605,2.271 -5.738,2.302 -7.536,5.524"
       inkscape:connector-curvature="0"
       style="fill:#e8e8e8" />
    <path
       id="path3550"
       d="m 319,241.17 c 1.262,0.049 2.105,1.423 2.332,2.422 0.543,2.402 -0.256,3.63 -2.196,4.758 -2.063,1.199 -7.542,2.103 -8.369,4.67 0.192,-1.386 0.555,-2.851 1.434,-3.982 1.121,-1.443 2.523,-1.181 4.028,-1.892 1.457,-0.688 5.272,-4.303 3.604,-6.142"
       inkscape:connector-curvature="0"
       style="fill:#e8e8e8" />
    <path
       id="path3552"
       d="m 261.667,256.17 c -4.119,0.381 -5.361,5.311 -2.537,7.871 1.432,1.298 3.233,1.64 4.88,2.639 1.505,0.913 2.637,2.22 3.947,3.48 -0.905,-2.176 -1.773,-4.05 -3.635,-5.451 -1.169,-0.88 -1.44,-1.092 -1.944,-2.498 -0.663,-1.854 -0.843,-4.221 -0.378,-6.207"
       inkscape:connector-curvature="0"
       style="fill:#e8e8e8" />
    <path
       id="path3554"
       d="m 199.856,236.11 c -0.822,7.005 6.205,11.478 8.865,3.433 2.246,-6.796 -6.488,-11.384 -8.768,-4.371 l -0.097,0.938 z"
       stroke-miterlimit="10"
       inkscape:connector-curvature="0"
       style="fill:#555ba8;stroke:#555ba8;stroke-width:2;stroke-miterlimit:10" />
    <path
       id="path3556"
       d="m 204.971,234.899 c 0.382,1.103 -0.713,2.418 -0.029,3.41 0.633,0.918 1.776,0.765 2.52,-0.067 0.621,-0.694 0.634,-3.114 -0.302,-3.823 -0.909,-0.689 -1.705,0.261 -2.472,0.925"
       inkscape:connector-curvature="0"
       style="fill:#e8e8e8" />
    <path
       id="path3558"
       d="m 202.09,236.272 c -1.553,1.218 0.467,5.885 2.457,5.747 -0.166,0.118 -0.297,0.262 -0.479,0.354 -2.645,-0.978 -6.16,-4.117 -2.293,-6.488"
       inkscape:connector-curvature="0"
       style="fill:#e8e8e8" />
    <path
       id="path3560"
       d="m 287.664,121.75 c -0.356,-0.525 -1.567,1.78 -1.986,1.324 l -2.65,1.325 c -4.672,6.232 -16.5,10.126 -23.109,12.613 -6.906,2.598 -16.072,4.345 -23.395,5.12 -14.861,1.573 -28.242,3.77 -43.328,1.403 -15.893,-2.494 -32.914,-5.492 -48.412,-7.731 -9.478,-1.37 -18.869,-2.469 -28.348,-3.974 -6.974,-1.107 -17.986,-6.865 -21.439,1.159 -0.605,1.407 0.32,-1.73 0,0"
       stroke-miterlimit="10"
       inkscape:connector-curvature="0"
       style="fill:none;stroke:#000000;stroke-width:2;stroke-miterlimit:10" />
    <path
       id="path3562"
       d="m 145.5,76.75 c -1.555,1.33 -2.496,1.164 -3,3.251 -0.309,1.278 -0.032,3.16 0.039,4.46 1.794,-0.03 5.099,-1.156 5.477,-3.018 0.317,-1.564 -1.175,-5.334 -3.016,-4.943"
       inkscape:connector-curvature="0"
       style="fill:#f2696a" />
    <path
       id="path3564"
       d="m 145.5,81.913 c -1.555,1.33 -2.496,1.164 -3,3.251 -0.309,1.278 -0.032,3.16 0.039,4.46 1.794,-0.03 5.099,-1.156 5.477,-3.018 0.317,-1.564 -1.175,-5.334 -3.016,-4.943"
       inkscape:connector-curvature="0"
       style="fill:#ffdc6d" />
    <path
       id="path3566"
       d="m 145.141,87.189 c -1.555,1.33 -2.496,1.164 -3,3.251 -0.309,1.278 -0.032,3.16 0.039,4.46 1.794,-0.03 5.099,-1.156 5.477,-3.018 0.317,-1.564 -1.175,-5.334 -3.016,-4.943"
       inkscape:connector-curvature="0"
       style="fill:#cfdf69" />
    <path
       id="path3568"
       d="m 145.5,91.51 c -1.555,1.33 -2.496,1.164 -3,3.251 -0.309,1.278 -0.032,3.16 0.039,4.46 1.794,-0.03 5.099,-1.156 5.477,-3.018 0.317,-1.564 -1.175,-5.334 -3.016,-4.943"
       inkscape:connector-curvature="0"
       style="fill:#91cfa6" />
    <path
       id="path3570"
       d="m 145.141,96.51 c -1.555,1.33 -2.496,1.164 -3,3.251 -0.309,1.278 -0.032,3.16 0.039,4.46 1.794,-0.03 5.099,-1.156 5.477,-3.018 0.317,-1.564 -1.175,-5.334 -3.016,-4.943"
       inkscape:connector-curvature="0"
       style="fill:#7ec6ee" />
    <path
       id="path3572"
       d="m 145.141,101.954 c -1.555,1.33 -2.496,1.164 -3,3.251 -0.309,1.278 -0.032,3.16 0.039,4.46 1.794,-0.03 5.099,-1.156 5.477,-3.018 0.317,-1.564 -1.175,-5.334 -3.016,-4.943"
       inkscape:connector-curvature="0"
       style="fill:#7c90c9" />
    <path
       id="path3574"
       d="m 147.076,112.153 c 0.808,-1.502 1.477,-4.542 -0.328,-5.371 -2.027,-0.931 -4.834,2.175 -5.25,3.903 -0.306,1.278 -0.03,3.157 0.04,4.455 0.047,0.876 4.998,-2.105 5.394,-2.739 0.048,-0.077 0.096,-0.16 0.144,-0.248 z"
       inkscape:connector-curvature="0"
       style="fill:#a87eb8" />
    <path
       id="path3576"
       d="m 141.397,116.241 c -0.377,1.476 -0.162,3.258 0.104,4.72 2.42,-0.168 3.168,2.36 5.242,0.165 1.137,-1.204 1.501,-3.717 1.762,-5.292 0.183,-1.103 0.644,-2.834 -1.243,-3.363 -2.035,-0.572 -5.38,1.877 -5.865,3.77 z"
       inkscape:connector-curvature="0"
       style="fill:#ee81b4" />
    <path
       id="path3578"
       d="m 141.65,119.218 c -0.195,-11.474 -0.307,-24.268 0.34,-35.777 0.239,-4.242 -0.413,-4.25 1.344,-5.943 2.285,-2.202 3.541,0.51 4.102,3.354 1.514,7.682 0.37,24.581 0.001,33.78 -0.331,8.262 -1.899,7.938 -5.787,5.911 l 0,-1.325 z"
       stroke-miterlimit="10"
       inkscape:connector-curvature="0"
       style="fill:none;stroke:#000000;stroke-width:2;stroke-miterlimit:10" />
    <path
       id="path3580"
       d="m 176.731,67.125 c -1.555,1.33 -2.496,1.164 -3,3.251 -0.309,1.278 -0.032,3.16 0.039,4.46 1.794,-0.03 5.099,-1.156 5.477,-3.018 0.317,-1.564 -1.175,-5.334 -3.016,-4.943"
       inkscape:connector-curvature="0"
       style="fill:#f2696a" />
    <path
       id="path3582"
       d="m 176.731,72.288 c -1.555,1.33 -2.496,1.164 -3,3.251 -0.309,1.278 -0.032,3.16 0.039,4.46 1.794,-0.03 5.099,-1.156 5.477,-3.018 0.317,-1.564 -1.175,-5.334 -3.016,-4.943"
       inkscape:connector-curvature="0"
       style="fill:#ffdc6d" />
    <path
       id="path3584"
       d="m 176.372,77.564 c -1.555,1.33 -2.496,1.164 -3,3.251 -0.309,1.278 -0.032,3.16 0.039,4.46 1.794,-0.03 5.099,-1.156 5.477,-3.018 0.317,-1.564 -1.175,-5.334 -3.016,-4.943"
       inkscape:connector-curvature="0"
       style="fill:#cfdf69" />
    <path
       id="path3586"
       d="m 176.731,81.885 c -1.555,1.33 -2.496,1.164 -3,3.251 -0.309,1.278 -0.032,3.16 0.039,4.46 1.794,-0.03 5.099,-1.156 5.477,-3.018 0.317,-1.564 -1.175,-5.334 -3.016,-4.943"
       inkscape:connector-curvature="0"
       style="fill:#91cfa6" />
    <path
       id="path3588"
       d="m 176.372,86.885 c -1.555,1.33 -2.496,1.164 -3,3.251 -0.309,1.278 -0.032,3.16 0.039,4.46 1.794,-0.03 5.099,-1.156 5.477,-3.018 0.317,-1.564 -1.175,-5.334 -3.016,-4.943"
       inkscape:connector-curvature="0"
       style="fill:#7ec6ee" />
    <path
       id="path3590"
       d="m 176.372,92.329 c -1.555,1.33 -2.496,1.164 -3,3.251 -0.309,1.278 -0.032,3.16 0.039,4.46 1.794,-0.03 5.099,-1.156 5.477,-3.018 0.317,-1.564 -1.175,-5.334 -3.016,-4.943"
       inkscape:connector-curvature="0"
       style="fill:#7c90c9" />
    <path
       id="path3592"
       d="m 178.308,102.528 c 0.808,-1.502 1.477,-4.542 -0.328,-5.371 -2.027,-0.931 -4.834,2.175 -5.25,3.903 -0.306,1.278 -0.03,3.157 0.04,4.455 0.047,0.876 4.998,-2.105 5.393,-2.739 0.049,-0.077 0.097,-0.16 0.145,-0.248 z"
       inkscape:connector-curvature="0"
       style="fill:#a87eb8" />
    <path
       id="path3594"
       d="m 172.629,106.616 c -0.377,1.476 -0.162,3.258 0.104,4.72 2.42,-0.168 3.168,2.36 5.242,0.165 1.137,-1.204 1.502,-3.717 1.762,-5.292 0.183,-1.103 0.644,-2.834 -1.243,-3.363 -2.036,-0.572 -5.381,1.877 -5.865,3.77 z"
       inkscape:connector-curvature="0"
       style="fill:#ee81b4" />
    <path
       id="path3596"
       d="m 172.881,109.593 c -0.195,-11.474 -0.307,-24.268 0.34,-35.777 0.239,-4.242 -0.413,-4.25 1.344,-5.943 2.285,-2.202 3.541,0.51 4.101,3.354 1.514,7.682 0.371,24.581 0.002,33.78 -0.332,8.262 -1.9,7.938 -5.788,5.911 l 0,-1.325 z"
       stroke-miterlimit="10"
       inkscape:connector-curvature="0"
       style="fill:none;stroke:#000000;stroke-width:2;stroke-miterlimit:10" />
    <path
       id="path3598"
       d="m 213.387,79.176 c -1.555,1.33 -2.496,1.164 -3,3.251 -0.309,1.278 -0.031,3.16 0.039,4.46 1.794,-0.03 5.099,-1.156 5.477,-3.018 0.317,-1.564 -1.175,-5.334 -3.016,-4.943"
       inkscape:connector-curvature="0"
       style="fill:#f2696a" />
    <path
       id="path3600"
       d="m 213.387,84.339 c -1.555,1.33 -2.496,1.164 -3,3.251 -0.309,1.278 -0.031,3.16 0.039,4.46 1.794,-0.03 5.099,-1.156 5.477,-3.018 0.317,-1.564 -1.175,-5.334 -3.016,-4.943"
       inkscape:connector-curvature="0"
       style="fill:#ffdc6d" />
    <path
       id="path3602"
       d="m 213.027,89.615 c -1.555,1.33 -2.496,1.164 -3,3.251 -0.309,1.278 -0.031,3.16 0.039,4.46 1.794,-0.03 5.099,-1.156 5.477,-3.018 0.317,-1.564 -1.175,-5.334 -3.016,-4.943"
       inkscape:connector-curvature="0"
       style="fill:#cfdf69" />
    <path
       id="path3604"
       d="m 213.387,93.937 c -1.555,1.33 -2.496,1.164 -3,3.251 -0.309,1.278 -0.031,3.16 0.039,4.46 1.794,-0.03 5.099,-1.156 5.477,-3.018 0.317,-1.564 -1.175,-5.334 -3.016,-4.943"
       inkscape:connector-curvature="0"
       style="fill:#91cfa6" />
    <path
       id="path3606"
       d="m 213.027,98.937 c -1.555,1.33 -2.496,1.164 -3,3.251 -0.309,1.278 -0.031,3.16 0.039,4.46 1.794,-0.03 5.099,-1.156 5.477,-3.018 0.317,-1.564 -1.175,-5.334 -3.016,-4.943"
       inkscape:connector-curvature="0"
       style="fill:#7ec6ee" />
    <path
       id="path3608"
       d="m 213.027,104.38 c -1.555,1.33 -2.496,1.164 -3,3.251 -0.309,1.278 -0.031,3.16 0.039,4.46 1.794,-0.03 5.099,-1.156 5.477,-3.018 0.317,-1.564 -1.175,-5.334 -3.016,-4.943"
       inkscape:connector-curvature="0"
       style="fill:#7c90c9" />
    <path
       id="path3610"
       d="m 214.963,114.579 c 0.808,-1.502 1.477,-4.542 -0.328,-5.371 -2.027,-0.931 -4.834,2.175 -5.25,3.903 -0.306,1.278 -0.029,3.157 0.041,4.455 0.047,0.876 4.997,-2.105 5.393,-2.739 0.048,-0.077 0.096,-0.16 0.144,-0.248 z"
       inkscape:connector-curvature="0"
       style="fill:#a87eb8" />
    <path
       id="path3612"
       d="m 209.284,118.667 c -0.378,1.476 -0.161,3.258 0.104,4.72 2.42,-0.168 3.168,2.36 5.242,0.165 1.137,-1.204 1.502,-3.717 1.762,-5.292 0.183,-1.103 0.644,-2.834 -1.243,-3.363 -2.036,-0.572 -5.38,1.877 -5.865,3.77 z"
       inkscape:connector-curvature="0"
       style="fill:#ee81b4" />
    <path
       id="path3614"
       d="m 209.537,121.645 c -0.195,-11.474 -0.308,-24.268 0.34,-35.777 0.238,-4.242 -0.413,-4.25 1.344,-5.943 2.285,-2.202 3.541,0.51 4.102,3.354 1.514,7.682 0.371,24.581 0.002,33.78 -0.332,8.262 -1.9,7.938 -5.787,5.911 l 0,-1.325 z"
       stroke-miterlimit="10"
       inkscape:connector-curvature="0"
       style="fill:none;stroke:#000000;stroke-width:2;stroke-miterlimit:10" />
    <path
       id="path3616"
       d="m 251.104,70.833 c -1.556,1.33 -2.496,1.164 -3,3.251 -0.309,1.278 -0.032,3.16 0.038,4.46 1.795,-0.03 5.1,-1.156 5.478,-3.018 0.317,-1.564 -1.175,-5.334 -3.016,-4.943"
       inkscape:connector-curvature="0"
       style="fill:#f2696a" />
    <path
       id="path3618"
       d="m 251.104,75.995 c -1.556,1.33 -2.496,1.164 -3,3.251 -0.309,1.278 -0.032,3.16 0.038,4.46 1.795,-0.03 5.1,-1.156 5.478,-3.018 0.317,-1.564 -1.175,-5.334 -3.016,-4.943"
       inkscape:connector-curvature="0"
       style="fill:#ffdc6d" />
    <path
       id="path3620"
       d="m 250.744,81.271 c -1.556,1.33 -2.496,1.164 -3,3.251 -0.309,1.278 -0.032,3.16 0.038,4.46 1.795,-0.03 5.1,-1.156 5.478,-3.018 0.317,-1.564 -1.175,-5.334 -3.016,-4.943"
       inkscape:connector-curvature="0"
       style="fill:#cfdf69" />
    <path
       id="path3622"
       d="m 251.104,85.593 c -1.556,1.33 -2.496,1.164 -3,3.251 -0.309,1.278 -0.032,3.16 0.038,4.46 1.795,-0.03 5.1,-1.156 5.478,-3.018 0.317,-1.564 -1.175,-5.334 -3.016,-4.943"
       inkscape:connector-curvature="0"
       style="fill:#91cfa6" />
    <path
       id="path3624"
       d="m 250.744,90.593 c -1.556,1.33 -2.496,1.164 -3,3.251 -0.309,1.278 -0.032,3.16 0.038,4.46 1.795,-0.03 5.1,-1.156 5.478,-3.018 0.317,-1.564 -1.175,-5.334 -3.016,-4.943"
       inkscape:connector-curvature="0"
       style="fill:#7ec6ee" />
    <path
       id="path3626"
       d="m 250.744,96.036 c -1.556,1.33 -2.496,1.164 -3,3.251 -0.309,1.278 -0.032,3.16 0.038,4.46 1.795,-0.03 5.1,-1.156 5.478,-3.018 0.317,-1.564 -1.175,-5.334 -3.016,-4.943"
       inkscape:connector-curvature="0"
       style="fill:#7c90c9" />
    <path
       id="path3628"
       d="m 252.68,106.235 c 0.808,-1.502 1.477,-4.542 -0.328,-5.371 -2.027,-0.931 -4.835,2.175 -5.249,3.903 -0.307,1.278 -0.031,3.157 0.039,4.455 0.048,0.876 4.998,-2.105 5.394,-2.739 0.048,-0.076 0.096,-0.159 0.144,-0.248 z"
       inkscape:connector-curvature="0"
       style="fill:#a87eb8" />
    <path
       id="path3630"
       d="m 247.001,110.324 c -0.377,1.476 -0.162,3.258 0.104,4.72 2.42,-0.168 3.169,2.36 5.242,0.165 1.137,-1.204 1.502,-3.717 1.762,-5.292 0.183,-1.103 0.644,-2.834 -1.243,-3.363 -2.036,-0.573 -5.381,1.877 -5.865,3.77 z"
       inkscape:connector-curvature="0"
       style="fill:#ee81b4" />
    <path
       id="path3632"
       d="m 247.253,113.301 c -0.195,-11.474 -0.307,-24.268 0.341,-35.777 0.239,-4.242 -0.413,-4.25 1.345,-5.943 2.284,-2.202 3.54,0.51 4.101,3.354 1.514,7.682 0.371,24.581 0.002,33.78 -0.332,8.262 -1.9,7.938 -5.788,5.911 l 0,-1.325 z"
       stroke-miterlimit="10"
       inkscape:connector-curvature="0"
       style="fill:none;stroke:#000000;stroke-width:2;stroke-miterlimit:10" />
  </g>
  <text
     xml:space="preserve"
     style="font-style:normal;font-weight:normal;font-size:49.1109581px;line-height:125%;font-family:sans-serif;letter-spacing:0px;word-spacing:0px;fill:#000000;fill-opacity:1;stroke:none;stroke-width:1px;stroke-linecap:butt;stroke-linejoin:miter;stroke-opacity:1"
     x="75.529633"
     y="67.365883"
     id="text3766"
     sodipodi:linespacing="125%"
     transform="scale(0.99497062,1.0050548)"><tspan
       sodipodi:role="line"
       x="75.529633"
       y="67.365883"
       id="tspan3770"
       style="font-size:27.62491417px">10 Years</tspan></text>
  <text
     xml:space="preserve"
     style="font-style:normal;font-weight:normal;font-size:49.1109581px;line-height:125%;font-family:sans-serif;letter-spacing:0px;word-spacing:0px;fill:#000000;fill-opacity:1;stroke:none;stroke-width:1px;stroke-linecap:butt;stroke-linejoin:miter;stroke-opacity:1"
     x="88.223816"
     y="87.313866"
     id="text3774"
     sodipodi:linespacing="125%"
     transform="scale(0.99497062,1.0050548)"><tspan
       sodipodi:role="line"
       id="tspan3776"
       x="88.223816"
       y="87.313866"
       style="font-weight:normal;font-size:16.88189316px;fill:#ff0000">2007-2017</tspan></text>
</svg>
