<svg xmlns="http://www.w3.org/2000/svg" xmlns:xlink="http://www.w3.org/1999/xlink" width="64" height="64" viewBox="0 0 64 64"><defs><radialGradient xlink:href="#a" id="b" cx="34.003" cy="12.795" fx="34.003" fy="12.795" r="36.365" gradientTransform="matrix(.67453 .20266 -.10197 .3394 13.635 16.968)" gradientUnits="userSpaceOnUse"/><linearGradient id="a"><stop offset="0" stop-color="#fff"/><stop offset="1" stop-color="#ffcfcf" stop-opacity="0"/></linearGradient></defs><path d="M2.167 30.577h3.696s1.17-3.382 6.034-7.241c-2.046-5.87 1.813-7.616 3.997-2.338 15.31-5.993 29.002-.663 33.898 7.483 3.376 5.62 2.568 12.579-4.783 18.086v7.769h-5.695l-.792-4.526c-5.389 2.225-14.874 1.946-18.253.332l-.754 4.42H14.16v-6.638L1.865 38.496z" fill="#ffcfcf"/><path d="M51.722 34.103c.527 1.774 1.692 3.28 3.243 3.28 1.55 0 3.24-1.827 3.47-3.525.221-1.634-.608-2.654-1.622-2.584-1.086.075-1.553 1.912-1.339 2.98.3 1.495 1.813 3.17 3.338 3.13 1.6-.044 3.318-3.47 3.318-3.47" fill="none" stroke="#000" stroke-width="1.389" stroke-linecap="round" stroke-linejoin="round"/><path d="M2.167 30.577h3.696s1.17-3.382 6.034-7.241c-2.046-5.87 1.813-7.616 3.997-2.338 15.31-5.993 29.002-.663 33.898 7.483 3.376 5.62 2.568 12.579-4.783 18.086v7.769h-5.695l-.792-4.526c-5.389 2.225-14.874 1.946-18.253.332l-.754 4.42H14.16v-6.638L1.865 38.496z" fill="url(#b)"/><ellipse cx="13.743" cy="29.23" rx="1.333" ry="2.157"/><path d="M1.958 36.08l-.092 2.416 12.294 9.429v6.637h5.355l.754-4.42c3.38 1.614 12.864 1.893 18.253-.331l.792 4.524h5.695v-7.768c3.895-2.918 5.937-6.243 6.51-9.56-15.643 9.144-30.696 9.455-45.037-.926H1.958z" fill="#e3aaaa"/><path d="M2.167 30.577h3.696s1.17-3.382 6.034-7.241c-2.046-5.87 1.813-7.616 3.997-2.338 15.31-5.993 29.002-.663 33.898 7.483 3.376 5.62 2.568 12.579-4.783 18.086v7.769h-5.695l-.792-4.526c-5.389 2.225-14.874 1.946-18.253.332l-.754 4.42H14.16v-6.638L1.865 38.496z" fill="none" stroke="#000" stroke-width="1.389" stroke-linejoin="round"/><circle cx="40.621" cy="17.206" r="8.462" fill="#fc0" paint-order="markers fill stroke"/><circle r="6.326" cy="17.092" cx="40.621" fill="none" stroke="#c87137" stroke-width="1.348" paint-order="markers fill stroke"/><path d="M23.512 23.26c11.502-2.105 20.35 2.286 23.458 9.353" fill="none" stroke="#000" stroke-width="1.389" stroke-linecap="round" stroke-linejoin="round"/></svg>