<svg xmlns="http://www.w3.org/2000/svg" xmlns:xlink="http://www.w3.org/1999/xlink" width="64" height="64"><defs><linearGradient id="a"><stop offset="0" stop-color="#ffcfcf"/><stop offset="1" stop-color="#ffcfcf" stop-opacity="0"/></linearGradient><linearGradient xlink:href="#a" id="b" x1="220.078" y1="508.795" x2="447.544" y2="178.969" gradientUnits="userSpaceOnUse"/></defs><g transform="matrix(.10125 0 0 .10125 -2.523 -11.694)"><path d="M40.291 374.782h37.25s11.797-34.081 60.817-72.98c-20.622-59.15 18.276-76.756 40.29-23.566 154.306-60.396 292.307-6.676 341.648 75.428 34.035 56.635 25.883 126.776-48.207 182.283v78.301h-57.396l-7.982-45.613c-54.311 22.422-149.913 19.612-183.97 3.348l-7.602 44.546h-53.975V549.63L37.25 454.604z" fill="url(#b)" stroke="#000" stroke-width="14" stroke-linejoin="round"/><path d="M255.43 301.042c115.926-21.219 205.093 23.034 236.425 94.266" fill="none" stroke="#000" stroke-width="14" stroke-linecap="round" stroke-linejoin="round"/><ellipse ry="21.744" rx="13.439" cy="361.213" cx="156.964"/><path d="M539.748 410.322c5.317 17.886 17.058 33.07 32.689 33.07 15.63 0 32.647-18.425 34.97-35.54 2.233-16.47-6.122-26.745-16.345-26.038-10.948.758-15.648 19.269-13.494 30.029 3.017 15.073 18.272 31.965 33.64 31.548 16.124-.437 33.448-34.97 33.448-34.97" fill="none" stroke="#000" stroke-width="14" stroke-linecap="round" stroke-linejoin="round"/></g><g transform="matrix(.85 0 0 .85 13.97 9.016)"><circle r="9.955" cy="3.367" cx="37.406" fill="#fc0" paint-order="markers fill stroke"/><circle cx="37.406" cy="3.367" r="7.95" fill="#c87137" paint-order="markers fill stroke"/><circle r="6.408" cy="3.367" cx="37.406" fill="#fc0" paint-order="markers fill stroke"/></g></svg>