<svg xmlns="http://www.w3.org/2000/svg" viewBox="0 0 212 212" height="212" width="212" version="1.2">
  <path fill="#BF924B" d="M83.75 183.764L44.684 155.38l-14.922-45.926 14.922-45.926L83.75 35.145h48.29l39.067 28.383 14.922 45.926-14.922 45.926-39.067 28.384"/>
  <circle r="68.826" cy="109.454" cx="107.896" fill="#4D2714"/>
  <path d="M162.69 120.517c-5-2-14.021-15.146-15.021-18.479-1-3.333 4.19057-31.047607-9.333-47.25-19.834-25.417-36.417-18.917-52-8-20.21 14.158-16 58.333-16 61 0 2.667 2.208 8.52-10.459 10.854-8.535 1.573-14.758 7.125-17.912 10.581.12.401.241.802.368 1.2 2.735-3.157 9.069-9.291 18.169-10.968 12.413-2.287 10.585-8.997 10.585-11.61 0-2.613-2.991-44.412 15.68-59.78 12.485-10.276 33.569-17.693 50.96 7.84 13.488 19.803 6.859 33.467 9.025 46.3.568 3.362 9.595 16.746 14.494 18.707 4.532 1.812 11.201 6.136 12.349 9.102.133-.426.247-.861.372-1.291-2.264-2.982-7.422-6.664-11.277-8.206z"/>
  <path d="M161.247 120.911c-4.899-1.961-13.926-15.345-14.494-18.707-2.166-12.833 4.463-26.498-9.025-46.3-17.391-25.533-38.475-18.116-50.96-7.84-18.671 15.368-15.68 57.167-15.68 59.78 0 2.613 1.828 9.323-10.585 11.61-9.1 1.677-15.434 7.811-18.169 10.968 8.87 27.756 34.864 47.858 65.563 47.858 30.85 0 56.957-20.298 65.7-48.267-1.149-2.966-7.819-7.29-12.35-9.102z" fill="#5D5D5D"/>
  <path d="M86.669 79.121c.667-1.167 20.12-8.389 36.833 12.5 2.334 2.917 5.334 4.583 5.334 6.667 0 1.5-1.338 33.843-29.834 30.167-15.5-2-18.271-22.021-18.688-22.938-1.079-2.375-2.646-4.229-3.646-6.563s-5.542.063-12.788-14.18c-.568-1.117-9.328-6.676-4.379-13.903 5.25-7.667 15.167 2.083 16.5 3.417 1.335 1.333 3.251 1.583 10.668 4.833z"/>
  <path d="M87.109 80.387c.623-1.09 19.313-8.229 34.925 11.286 2.18 2.724 6.094 5.179 6.094 7.125 0 1.401-1.625 32.188-29.625 28.938-14.503-1.684-17.392-21.707-17.782-22.563-1.008-2.218-2.597-4.539-3.531-6.719-.934-2.18-5.208-.045-11.5-12.625-1.868-3.737-10.546-7.77-5.494-14.208 6.775-8.636 15.057 3.989 18.214 7.987.431.545.674-.233.187-.811-1.188-1.406-2.153-3.415-1.451-2.926 1.444 1.008 3.034 1.48 9.963 4.516z" fill="#D6BFB2"/>
  <path d="M69.721 78.61c-.566-.162-1.781-1.094-1.375-1.625s1.781-.531 2.156.438 1.5.031.406-.875-3.563-1.063-3.75.094 1.313 2.875 2.438 2.75.563-.657.125-.782zM86.502 105.892s13.203 6.379 31.666-3.854c1.299-.719 1.145.059-.197.635-3.781 1.625-6.071 3.742-9.469 5.438-2.938 1.466-5.166 13.531-12.25 12.906-6.365-.562-6.729-10.011-7.313-13.344-1.999-.5-2.483-1.578-2.437-1.781z"/>
  <path d="M89.877 107.767s.5 5.563.688 6 7.898 2.463 12.875.375c1.938-.813 2.344-4.563 3.625-5.938-1.125 0-10.438 1.625-17.188-.437z" fill="#FFF"/>
  <g>
    <path d="M118.877 63.434c.896-.167 11.438-2.636 11.791 11.188.039 1.5-.75 1-.895-.771-.146-1.771.674-9.544-10.334-9.24-3.021.083-1.458-1.01-.562-1.177zM92.909 63.829c.353.131 1.594.278.594-.875-1.625-1.875-13.314-2.901-14.094 4.625-.188 1.813.625 2.063.781.563.328-3.146 5.219-7.094 12.719-4.313z"/>
  </g>
  <g>
    <path d="M81.766 160.755c-.681-2.156-.593-5-1.538-6.635-1.412-2.443-3.114-1.422-3.795-2.33-.681-.907-.236-2.102-2.383-3.744-2.682-2.051-4.678-1.485-6.24-2.496-1.93-1.248-1.986-2.213-4.539-3.178-1.479-.559-4.773-.895-5.333-1.248-2.331-1.475-6.447-2.471-9.645-2.156-1.76.174-5.003 8.32-4.918 11.245-2.729 4.757-2.932 8.981-1.585 9.879.857.571 6.47-7.138 6.616-7.167.113.158-4.922 10.596-2.164 12.433 1.248.831 7.573-6.858 8.178-6.929-.052.208-4.74 8.692-3.699 9.65 1.431 1.316 5.661-.525 9.566-4.858.136-.155.115-.128 0 0-1.503 1.708-5.535 6.837-4.506 7.784 1.602 1.473 9.314-2.145 14.05-4.2 0 0 .255.358.596.526-3.028.925-5.152 2.478-4.815 3.451.449 1.297 6.261 1.857 9.724.615.138.012.274.035.417.02 1.077-.118 1.911-.034 2.572.197.211.073.407.16.584.264 1.195.556 2.41 1.074 3.642 1.563.87-2.15 1.777-4.77 1.655-6.105-.227-2.497-1.759-4.426-2.44-6.581z"/>
    <path d="M75.143 171.11s.46-.016.516-.016c.394-.041.713-.125 1.016-.125.678 0 1.172.078 1.641.391.22.146.397.402.594.518.971.449 2.112.946 3.198 1.385 1.013-2.571 1.686-4.955 1.601-5.882-.132-1.462-.762-2.761-1.37-4.017-.383-.791-.779-1.609-1.048-2.459-.297-.939-.451-1.988-.601-3.004-.201-1.369-.392-2.662-.894-3.531-.766-1.325-1.557-1.463-2.321-1.596-.524-.091-1.066-.186-1.44-.684-.278-.371-.4-.77-.52-1.154-.215-.699-.458-1.492-1.768-2.494-1.511-1.154-2.792-1.432-3.923-1.675-.812-.175-1.578-.341-2.285-.798-.784-.508-1.282-.978-1.722-1.393-.671-.633-1.25-1.181-2.723-1.736-.722-.273-1.95-.498-3.033-.697-1.302-.238-2.055-.385-2.39-.596-2.278-1.441-6.298-2.379-9.329-2.082-1.218.12-4.798 6.447-4.533 10.996-3.057 4.242-2.932 8.305-1.838 9.102.452.33 5.766-6.109 6.337-7.129.299-.532.727.091.569.395-3.084 5.958-3.531 11.438-2.406 12.141.906.566 7.56-6.999 7.891-7.038l.719-.085s.031.217-.827 1.832c-4.117 7.744-3.261 8.078-2.798 8.4 1.125.781 5.225-1.602 8.46-5.193.021-.022.683-.471.791-.271s.249.543-.048.941c-2.356 3.158-5.047 6.148-4.529 7.092 1.186 1.197 8.352-2.041 12.077-3.678l1.625-.665 1.95 1.136s-6.389 1.639-5.811 3.123c.284.729 1.252 1.172 4.063 1.172 1.892-.001 3.84-.171 5.109-.626z" fill="#D6BFB2"/>
  </g>
  <g>
    <path d="M154.056,114.278c-2.61-3.26-5.038-6.995-6.34-9.595c-0.001-0.001-0.001-0.001-0.002-0.002c-8.128,17.273-25.802,42.273-42.704,41.449c-10.919-0.532-30.07-26.173-34.211-33.246c-0.737,2.316-2.809,4.729-8.301,6.133c-0.003,0.001-0.006,0.002-0.009,0.004c8.096,17.705,29.946,38.85,41.526,38.85C116.528,157.87,132.407,150.575,154.056,114.278z" fill="#000" stroke="#000" stroke-width="1.33"/>
    <path d="M151.38477 110.5957c-2.77338 4.07386-5.44029 7.86558-7.9668 11.27539-2.67606 3.61164-5.22017 6.86164-7.64649 9.77149-2.42631 2.90985-4.73489 5.47991-6.93945 7.73242s-4.30366 4.18657-6.31445 5.82617c-2.0108 1.6396-3.93232 2.98355-5.77735 4.05469-1.84502 1.07114-3.61502 1.87086-5.32226 2.41797s-3.35177.84263-4.94922.91015c-1.59745.06753-3.14646-.09331-4.66211-.46093-1.51565-.36763-2.997145-.94284-4.458984-1.70117-1.461838-.75834-2.903825-1.70009-4.339844-2.80469-1.436018-1.10461-2.866498-2.37091-4.304687-3.77735-1.438189-1.40644-2.885166-2.95335-4.353516-4.61718-2.936699-3.32767-5.962215-7.1262-9.1875-11.2168-2.639558-3.34773-5.532749-6.97301-8.501953-10.61524-1.120432.61315-2.419928 1.18158-4.162109 1.62696-.003.001-.006766.0019-.009766.0039 8.096 17.705 29.947344 38.84961 41.527339 38.84961 12.51301-.001 28.39202-7.29675 50.04102-43.59375-.95227-1.18943-1.81391-2.44394-2.67187-3.68164z" fill="#d81e41"/>
    <path d="M147.71484 104.68164c-8.128 17.273-25.80307 42.27322-42.70507 41.44922-10.919004-.532-30.069942-26.17309-34.210942-33.24609-.503208 1.58131-1.727087 3.18614-4.138672 4.50585 2.969204 3.64223 5.862395 7.26751 8.501953 10.61524 3.225285 4.0906 6.250801 7.88913 9.1875 11.2168 1.46835 1.66383 2.915327 3.21074 4.353516 4.61718 1.438189 1.40644 2.868669 2.67274 4.304687 3.77735 1.436019 1.1046 2.878006 2.04635 4.339844 2.80469 1.461839.75833 2.943334 1.33354 4.458984 1.70117 1.51565.36762 3.06466.52846 4.66211.46093 1.59745-.06752 3.24198-.36304 4.94922-.91015 1.70724-.54711 3.47724-1.34683 5.32226-2.41797 1.84503-1.07114 3.76655-2.41509 5.77735-4.05469 2.01079-1.6396 4.10989-3.57366 6.31445-5.82617 2.20456-2.25251 4.51314-4.82257 6.93945-7.73242 2.42632-2.90985 4.97043-6.15985 7.64649-9.77149 2.52651-3.40981 5.19342-7.20153 7.9668-11.27539-1.49356-2.15459-2.84102-4.26073-3.66797-5.91211l-.00196-.00195z" fill="#fff"/>
    <circle fill="#FCD47B" stroke="#000" stroke-width=".75" r="17.896" cy="158.987" cx="104.017"/>
    <text x="92" y="166.53575" font-size="22.5" font-family="Georgia-Bold" stroke="#000">10</text>
    <text x="92" y="166.53575" font-size="22.5" font-family="Georgia-Bold" fill="#cc9a32">10</text>
  </g>
</svg>
