<?xml version="1.0" encoding="utf-8"?>
<svg version="1.2" baseProfile="tiny" id="Calque_1"
	 xmlns="http://www.w3.org/2000/svg" xmlns:xlink="http://www.w3.org/1999/xlink" x="0px" y="0px" width="212.599px"
	 height="212.599px" viewBox="0 0 212.599 212.599" xml:space="preserve">
<g>
	<polygon fill="#BF924B" points="83.75,183.764 44.684,155.38 29.762,109.454 44.684,63.528 83.75,35.145 132.04,35.145 
		171.107,63.528 186.029,109.454 171.107,155.38 132.04,183.764 	"/>
	<circle fill="#4D2714" cx="107.896" cy="109.454" r="68.826"/>
</g>
<g>
	<path d="M162.69,120.517c-5-2-14.021-15.146-15.021-18.479s7.819-25.269-9.333-47.25c-19.834-25.417-36.417-18.917-52-8
		c-20.21,14.158-16,58.333-16,61s2.208,8.52-10.459,10.854c-8.535,1.573-14.758,7.125-17.912,10.581
		c0.12,0.401,0.241,0.802,0.368,1.2c2.735-3.157,9.069-9.291,18.169-10.968c12.413-2.287,10.585-8.997,10.585-11.61
		c0-2.613-2.991-44.412,15.68-59.78c12.485-10.276,33.569-17.693,50.96,7.84c13.488,19.803,6.859,33.467,9.025,46.3
		c0.568,3.362,9.595,16.746,14.494,18.707c4.532,1.812,11.201,6.136,12.349,9.102c0.133-0.426,0.247-0.861,0.372-1.291
		C171.703,125.741,166.545,122.059,162.69,120.517z"/>
	<path fill="#2B2B2B" d="M161.247,120.911c-4.899-1.961-13.926-15.345-14.494-18.707c-2.166-12.833,4.463-26.498-9.025-46.3
		c-17.391-25.533-38.475-18.116-50.96-7.84c-18.671,15.368-15.68,57.167-15.68,59.78c0,2.613,1.828,9.323-10.585,11.61
		c-9.1,1.677-15.434,7.811-18.169,10.968c8.87,27.756,34.864,47.858,65.563,47.858c30.85,0,56.957-20.298,65.7-48.267
		C172.448,127.047,165.778,122.723,161.247,120.911z"/>
</g>
<g>
	<path d="M86.669,79.121c0.667-1.167,20.12-8.389,36.833,12.5c2.334,2.917,5.334,4.583,5.334,6.667
		c0,1.5-1.338,33.843-29.834,30.167c-15.5-2-18.271-22.021-18.688-22.938c-1.079-2.375-2.646-4.229-3.646-6.563
		s-5.542,0.063-12.788-14.18c-0.568-1.117-9.328-6.676-4.379-13.903c5.25-7.667,15.167,2.083,16.5,3.417
		C77.336,75.621,79.252,75.871,86.669,79.121z"/>
	<path fill="#D6BFB2" d="M87.109,80.387c0.623-1.09,19.313-8.229,34.925,11.286c2.18,2.724,6.094,5.179,6.094,7.125
		c0,1.401-1.625,32.188-29.625,28.938C84,126.052,81.111,106.029,80.721,105.173c-1.008-2.218-2.597-4.539-3.531-6.719
		c-0.934-2.18-5.208-0.045-11.5-12.625c-1.868-3.737-10.546-7.77-5.494-14.208c6.775-8.636,15.057,3.989,18.214,7.987
		c0.431,0.545,0.674-0.233,0.187-0.811c-1.188-1.406-2.153-3.415-1.451-2.926C78.59,76.879,80.18,77.351,87.109,80.387z"/>
	<path d="M69.721,78.61c-0.566-0.162-1.781-1.094-1.375-1.625s1.781-0.531,2.156,0.438s1.5,0.031,0.406-0.875
		s-3.563-1.063-3.75,0.094s1.313,2.875,2.438,2.75S70.159,78.735,69.721,78.61z"/>
	<g>
		<path d="M86.502,105.892c0,0,13.203,6.379,31.666-3.854c1.299-0.719,1.145,0.059-0.197,0.635
			c-3.781,1.625-6.071,3.742-9.469,5.438c-2.938,1.466-5.166,13.531-12.25,12.906c-6.365-0.562-6.729-10.011-7.313-13.344
			C86.94,107.173,86.456,106.095,86.502,105.892z"/>
		<path fill="#FFFFFF" d="M89.877,107.767c0,0,0.5,5.563,0.688,6s7.898,2.463,12.875,0.375c1.938-0.813,2.344-4.563,3.625-5.938
			C105.94,108.204,96.627,109.829,89.877,107.767z"/>
	</g>
</g>
<g>
	<path d="M118.877,63.434c0.896-0.167,11.438-2.636,11.791,11.188c0.039,1.5-0.75,1-0.895-0.771
		c-0.146-1.771,0.674-9.544-10.334-9.24C116.418,64.694,117.981,63.601,118.877,63.434z"/>
	<path d="M92.909,63.829c0.353,0.131,1.594,0.278,0.594-0.875c-1.625-1.875-13.314-2.901-14.094,4.625
		c-0.188,1.813,0.625,2.063,0.781,0.563C80.518,64.996,85.409,61.048,92.909,63.829z"/>
</g>
<g>
	<path d="M81.766,160.755c-0.681-2.156-0.593-5-1.538-6.635c-1.412-2.443-3.114-1.422-3.795-2.33
		c-0.681-0.907-0.236-2.102-2.383-3.744c-2.682-2.051-4.678-1.485-6.24-2.496c-1.93-1.248-1.986-2.213-4.539-3.178
		c-1.479-0.559-4.773-0.895-5.333-1.248c-2.331-1.475-6.447-2.471-9.645-2.156c-1.76,0.174-5.003,8.32-4.918,11.245
		c-2.729,4.757-2.932,8.981-1.585,9.879c0.857,0.571,6.47-7.138,6.616-7.167c0.113,0.158-4.922,10.596-2.164,12.433
		c1.248,0.831,7.573-6.858,8.178-6.929c-0.052,0.208-4.74,8.692-3.699,9.65c1.431,1.316,5.661-0.525,9.566-4.858
		c0.136-0.155,0.115-0.128,0,0c-1.503,1.708-5.535,6.837-4.506,7.784c1.602,1.473,9.314-2.145,14.05-4.2
		c0,0,0.255,0.358,0.596,0.526c-3.028,0.925-5.152,2.478-4.815,3.451c0.449,1.297,6.261,1.857,9.724,0.615
		c0.138,0.012,0.274,0.035,0.417,0.02c1.077-0.118,1.911-0.034,2.572,0.197c0.211,0.073,0.407,0.16,0.584,0.264
		c1.195,0.556,2.41,1.074,3.642,1.563c0.87-2.15,1.777-4.77,1.655-6.105C83.979,164.839,82.447,162.91,81.766,160.755z"/>
	<path fill="#4D4D4D" d="M75.143,171.11c0,0,0.46-0.016,0.516-0.016c0.394-0.041,0.713-0.125,1.016-0.125
		c0.678,0,1.172,0.078,1.641,0.391c0.22,0.146,0.397,0.402,0.594,0.518c0.971,0.449,2.112,0.946,3.198,1.385
		c1.013-2.571,1.686-4.955,1.601-5.882c-0.132-1.462-0.762-2.761-1.37-4.017c-0.383-0.791-0.779-1.609-1.048-2.459
		c-0.297-0.939-0.451-1.988-0.601-3.004c-0.201-1.369-0.392-2.662-0.894-3.531c-0.766-1.325-1.557-1.463-2.321-1.596
		c-0.524-0.091-1.066-0.186-1.44-0.684c-0.278-0.371-0.4-0.77-0.52-1.154c-0.215-0.699-0.458-1.492-1.768-2.494
		c-1.511-1.154-2.792-1.432-3.923-1.675c-0.812-0.175-1.578-0.341-2.285-0.798c-0.784-0.508-1.282-0.978-1.722-1.393
		c-0.671-0.633-1.25-1.181-2.723-1.736c-0.722-0.273-1.95-0.498-3.033-0.697c-1.302-0.238-2.055-0.385-2.39-0.596
		c-2.278-1.441-6.298-2.379-9.329-2.082c-1.218,0.12-4.798,6.447-4.533,10.996c-3.057,4.242-2.932,8.305-1.838,9.102
		c0.452,0.33,5.766-6.109,6.337-7.129c0.299-0.532,0.727,0.091,0.569,0.395c-3.084,5.958-3.531,11.438-2.406,12.141
		c0.906,0.566,7.56-6.999,7.891-7.038l0.719-0.085c0,0,0.031,0.217-0.827,1.832c-4.117,7.744-3.261,8.078-2.798,8.4
		c1.125,0.781,5.225-1.602,8.46-5.193c0.021-0.022,0.683-0.471,0.791-0.271s0.249,0.543-0.048,0.941
		c-2.356,3.158-5.047,6.148-4.529,7.092c1.186,1.197,8.352-2.041,12.077-3.678l1.625-0.665l1.95,1.136c0,0-6.389,1.639-5.811,3.123
		c0.284,0.729,1.252,1.172,4.063,1.172C71.926,171.735,73.874,171.565,75.143,171.11z"/>
</g>
<g>
	<path fill="#A02316" d="M154.056,114.278c-2.61-3.26-5.038-6.995-6.34-9.595c-0.001-0.001-0.001-0.001-0.002-0.002
		c-8.128,17.273-25.802,42.273-42.704,41.449c-10.919-0.532-30.07-26.173-34.211-33.246c-0.737,2.316-2.809,4.729-8.301,6.133
		c-0.003,0.001-0.006,0.002-0.009,0.004c8.096,17.705,29.946,38.85,41.526,38.85C116.528,157.87,132.407,150.575,154.056,114.278z"
		/>
	<g>
		<circle fill="#FCD47B" stroke="#000000" stroke-width="0.75" stroke-miterlimit="10" cx="104.017" cy="158.987" r="17.896"/>
		
			<path fill-rule="evenodd" fill="none" stroke="#000000" stroke-width="0.75" stroke-linecap="round" stroke-linejoin="round" stroke-miterlimit="10" d="
			M98.306,146.204l0.012-0.002l0.115,0.068c0.35,0.209,0.844,0.166,1.106,0.042c-0.292-0.175-0.729-0.284-1.021-0.221
			c0.222-0.199,0.391-0.614,0.424-0.95c-0.256,0.137-0.584,0.51-0.623,0.917L98.306,146.204L98.306,146.204z M110.271,146.384
			c0.093,0.048,0.186,0.098,0.277,0.15c-0.232-0.222-0.407-0.66-0.442-1.017c0.277,0.149,0.633,0.554,0.674,0.995l0.016,0.158
			l-0.004-0.002c0.247,0.145,0.491,0.295,0.73,0.455l0.023,0.006c-0.264-0.246-0.465-0.742-0.504-1.146
			c0.311,0.167,0.71,0.622,0.758,1.117l0.017,0.178c-0.031-0.006-0.063-0.015-0.093-0.028l-0.008,0.005
			c0.254,0.176,0.502,0.359,0.744,0.551c0.036,0.01,0.07,0.021,0.103,0.035c-0.263-0.296-0.432-0.859-0.433-1.307
			c0.324,0.217,0.713,0.755,0.714,1.301v0.195c-0.034-0.009-0.066-0.021-0.099-0.039l-0.037,0.018
			c0.293,0.243,0.574,0.499,0.846,0.766c0.057,0.021,0.111,0.046,0.159,0.073c-0.286-0.411-0.412-1.144-0.347-1.704
			c0.373,0.32,0.781,1.053,0.699,1.737l-0.029,0.247c-0.041-0.017-0.08-0.039-0.118-0.065l-0.061,0.021
			c0.319,0.335,0.622,0.686,0.906,1.053c0.034,0.021,0.068,0.043,0.099,0.066c-0.283-0.545-0.32-1.455-0.15-2.125
			c0.402,0.447,0.781,1.402,0.573,2.222l-0.074,0.294c-0.048-0.025-0.093-0.059-0.134-0.098l-0.037,0.008
			c0.279,0.385,0.539,0.785,0.777,1.201c0.031,0.025,0.061,0.053,0.088,0.08c-0.228-0.646-0.127-1.658,0.164-2.371
			c0.375,0.556,0.645,1.671,0.289,2.543l-0.128,0.314c-0.048-0.037-0.093-0.079-0.132-0.129l-0.038,0.002
			c0.21,0.396,0.401,0.807,0.571,1.225c0.064,0.064,0.123,0.129,0.174,0.196c-0.144-0.724,0.117-1.788,0.537-2.505
			c0.315,0.65,0.434,1.883-0.08,2.759l-0.186,0.315c-0.046-0.047-0.086-0.1-0.121-0.158l-0.098-0.008
			c0.177,0.502,0.326,1.02,0.445,1.547c0.023,0.037,0.044,0.076,0.064,0.113c-0.025-0.794,0.438-1.877,1.01-2.564
			c0.22,0.746,0.129,2.074-0.57,2.914l-0.251,0.303c-0.04-0.057-0.074-0.121-0.101-0.189l-0.039-0.01
			c0.094,0.521,0.158,1.053,0.191,1.592c0.203-0.834,0.861-1.808,1.554-2.398c0.102,0.863-0.25,2.311-1.181,3.106l-0.335,0.285
			l-0.015-0.031c-0.004,0.501-0.034,0.994-0.091,1.48c0.007,0.036,0.014,0.071,0.019,0.106c0.273-0.866,1.186-1.859,2.063-2.383
			c-0.045,0.888-0.647,2.286-1.721,2.928l-0.386,0.23c-0.022-0.077-0.034-0.158-0.038-0.242l-0.023-0.017
			c-0.106,0.647-0.258,1.279-0.45,1.893c0.53-0.841,1.681-1.656,2.701-2.018c-0.246,0.958-1.212,2.353-2.522,2.815l-0.473,0.166
			c-0.004-0.039-0.004-0.08-0.003-0.12c-0.204,0.527-0.44,1.038-0.707,1.53c0.685-0.717,1.956-1.293,3.017-1.452
			c-0.422,0.895-1.633,2.079-3.01,2.286l-0.494,0.074c0.004-0.034,0.008-0.068,0.016-0.104c-0.307,0.486-0.643,0.951-1.006,1.393
			c0.943-0.619,2.488-0.939,3.701-0.854c-0.693,0.893-2.338,1.912-3.922,1.799l-0.57-0.04c0.004-0.013,0.01-0.026,0.014-0.04
			c-0.45,0.462-0.934,0.893-1.445,1.287c1.202-0.367,2.902-0.279,4.16,0.135c-1.008,0.787-3.097,1.45-4.805,0.889l-0.568-0.187
			c-0.611,0.373-1.253,0.7-1.922,0.976c1.369-0.127,3.228,0.438,4.481,1.247c-1.257,0.544-3.601,0.669-5.221-0.375l-0.582-0.376
			c0.017-0.016,0.035-0.031,0.053-0.045c-1.248,0.373-2.569,0.576-3.939,0.576c-1.327,0-2.611-0.189-3.825-0.543
			c0.02,0.016,0.039,0.033,0.058,0.05l-0.582,0.374c-1.621,1.045-3.964,0.921-5.222,0.376c1.244-0.802,3.082-1.364,4.448-1.251
			c-0.669-0.27-1.313-0.592-1.924-0.96l-0.532,0.175c-1.708,0.563-3.797-0.102-4.806-0.889c1.221-0.402,2.855-0.496,4.05-0.167
			c-0.484-0.372-0.944-0.778-1.373-1.21l-0.518,0.036c-1.585,0.112-3.229-0.907-3.923-1.8c1.142-0.08,2.577,0.199,3.528,0.747
			c-0.31-0.38-0.598-0.777-0.866-1.189l-0.445-0.067c-1.376-0.207-2.587-1.392-3.01-2.287c0.967,0.146,2.106,0.635,2.819,1.264
			c-0.211-0.402-0.402-0.816-0.573-1.242l-0.411-0.145c-1.312-0.464-2.277-1.856-2.522-2.814c0.914,0.322,1.932,1.01,2.515,1.755
			c-0.132-0.449-0.243-0.908-0.33-1.374l-0.382-0.229c-1.072-0.643-1.675-2.04-1.72-2.928c0.777,0.465,1.582,1.299,1.946,2.086
			c-0.047-0.443-0.071-0.893-0.075-1.347l-0.231-0.197c-0.93-0.795-1.281-2.243-1.181-3.107c0.606,0.519,1.186,1.327,1.457,2.08
			c0.03-0.368,0.075-0.732,0.133-1.093l-0.234-0.283c-0.7-0.84-0.791-2.168-0.57-2.913c0.497,0.597,0.914,1.497,0.996,2.245
			c0.1-0.42,0.218-0.83,0.354-1.232c-0.017,0.02-0.033,0.039-0.051,0.057l-0.185-0.316c-0.514-0.875-0.396-2.107-0.08-2.758
			c0.391,0.668,0.645,1.639,0.56,2.354c0.161-0.402,0.341-0.795,0.537-1.178l-0.113-0.279c-0.355-0.872-0.085-1.988,0.29-2.544
			c0.249,0.61,0.357,1.438,0.243,2.069c0.188-0.318,0.391-0.627,0.604-0.926l-0.064-0.256c-0.206-0.82,0.172-1.775,0.574-2.223
			c0.144,0.568,0.139,1.312-0.04,1.855c0.228-0.282,0.465-0.556,0.713-0.82l-0.027-0.23c-0.081-0.685,0.326-1.42,0.699-1.738
			c0.058,0.491-0.032,1.114-0.247,1.538c0.247-0.241,0.505-0.474,0.77-0.696v-0.15c0.001-0.547,0.391-1.084,0.714-1.301
			c-0.001,0.363-0.111,0.805-0.295,1.117c0.201-0.156,0.406-0.307,0.616-0.45l0.01-0.101c0.047-0.494,0.447-0.949,0.757-1.117
			c-0.028,0.304-0.149,0.66-0.32,0.923c0.189-0.119,0.381-0.233,0.576-0.344l0.006-0.05c0.042-0.441,0.396-0.846,0.674-0.995
			c-0.026,0.275-0.138,0.601-0.294,0.835l0.013-0.006l-0.013,0.007c-0.048,0.071-0.1,0.135-0.153,0.185
			c0.313-0.097,0.827,0.024,1.163,0.225c-0.284,0.135-0.821,0.183-1.201-0.045l-0.121-0.072c-0.027,0.012-0.055,0.021-0.083,0.025
			l0.01-0.101c-0.202,0.118-0.402,0.241-0.599,0.37c-0.05,0.072-0.104,0.137-0.16,0.19c0.352-0.111,0.93,0.026,1.308,0.251
			c-0.319,0.152-0.923,0.205-1.349-0.051l-0.138-0.081c-0.03,0.015-0.062,0.022-0.093,0.028l0.005-0.045
			c-0.23,0.164-0.457,0.336-0.677,0.515c-0.024,0.033-0.049,0.064-0.074,0.093c0.374-0.156,1.02-0.066,1.456,0.141
			c-0.334,0.199-0.986,0.318-1.48,0.084l-0.157-0.075c-0.024,0.014-0.048,0.024-0.072,0.032c-0.293,0.254-0.575,0.521-0.845,0.799
			c0.454-0.225,1.238-0.203,1.796-0.016c-0.389,0.299-1.19,0.547-1.844,0.327l-0.188-0.063c-0.322,0.348-0.627,0.714-0.911,1.096
			c0.517-0.348,1.476-0.448,2.184-0.307c-0.426,0.424-1.359,0.854-2.188,0.689l-0.239-0.047c-0.266,0.379-0.513,0.773-0.739,1.182
			c0.534-0.432,1.53-0.67,2.305-0.627c-0.403,0.535-1.369,1.155-2.31,1.103l-0.242-0.013c-0.19,0.375-0.364,0.762-0.521,1.158
			c0.537-0.475,1.462-0.82,2.224-0.888c-0.349,0.634-1.285,1.443-2.297,1.531l-0.168,0.015c-0.152,0.452-0.281,0.915-0.385,1.387
			c0.478-0.613,1.422-1.162,2.236-1.371c-0.258,0.732-1.11,1.756-2.169,2.027l-0.205,0.053c-0.092,0.551-0.151,1.113-0.175,1.684
			c0.354-0.82,1.368-1.695,2.292-2.109c-0.146,0.858-0.892,2.147-2.008,2.648l-0.296,0.131c0.002,0.455,0.027,0.905,0.073,1.348
			c0.31-0.818,1.09-1.721,1.861-2.236c0,0.889-0.531,2.316-1.572,3.01l-0.167,0.113c0.098,0.578,0.232,1.145,0.401,1.695
			c0.121-0.984,0.797-2.204,1.554-2.965c0.195,0.97-0.068,2.645-1.05,3.631l-0.203,0.205c0.192,0.502,0.413,0.99,0.66,1.463
			c-0.051-0.984,0.378-2.283,0.968-3.16c0.375,0.916,0.433,2.609-0.344,3.764l-0.151,0.225c0.292,0.47,0.611,0.922,0.955,1.352
			c-0.308-1.084-0.154-2.649,0.286-3.779c0.646,0.928,1.131,2.801,0.554,4.28l-0.125,0.321c0.503,0.534,1.048,1.026,1.631,1.473
			c-0.695-1.094-0.989-2.942-0.812-4.359c0.967,0.838,2.019,2.76,1.794,4.546l-0.059,0.46c0.603,0.386,1.239,0.725,1.901,1.01
			c-0.905-0.992-1.604-2.665-1.786-4.066c1.228,0.608,2.835,2.318,3.084,4.229l0.045,0.333c1.245,0.385,2.566,0.592,3.935,0.592
			c1.413,0,2.774-0.221,4.054-0.629l0.045-0.333c0.248-1.911,1.856-3.62,3.084-4.229c-0.182,1.39-0.871,3.047-1.765,4.043
			c0.653-0.291,1.28-0.633,1.874-1.022l-0.053-0.425c-0.225-1.785,0.827-3.707,1.793-4.545c0.173,1.374-0.098,3.154-0.749,4.257
			c0.552-0.437,1.067-0.917,1.544-1.433l-0.1-0.258c-0.578-1.481-0.094-3.354,0.553-4.281c0.419,1.074,0.578,2.54,0.33,3.613
			c0.309-0.402,0.598-0.822,0.861-1.259l-0.102-0.15c-0.775-1.155-0.719-2.849-0.343-3.765c0.55,0.818,0.96,2.006,0.971,2.961
			c0.218-0.434,0.411-0.881,0.582-1.34l-0.129-0.128c-0.98-0.987-1.245-2.661-1.05-3.632c0.698,0.702,1.326,1.795,1.516,2.732
			c0.143-0.498,0.256-1.01,0.34-1.529l-0.067-0.046c-1.04-0.694-1.571-2.122-1.571-3.011c0.702,0.47,1.412,1.26,1.768,2.016
			c0.031-0.387,0.051-0.779,0.051-1.176v-0.003l-0.18-0.08c-1.115-0.499-1.863-1.79-2.009-2.647c0.827,0.37,1.726,1.111,2.159,1.85
			c-0.031-0.494-0.088-0.98-0.17-1.457l-0.076-0.02c-1.059-0.272-1.912-1.295-2.17-2.027c0.727,0.186,1.555,0.643,2.066,1.174
			c-0.099-0.408-0.215-0.809-0.348-1.201l-0.034-0.002c-1.013-0.09-1.948-0.898-2.297-1.531c0.676,0.059,1.481,0.339,2.028,0.731
			c-0.14-0.339-0.293-0.671-0.459-0.995l-0.108,0.006c-0.94,0.051-1.907-0.568-2.31-1.104c0.674-0.037,1.518,0.139,2.077,0.471
			c-0.198-0.344-0.411-0.678-0.638-1.001l-0.114,0.022c-0.829,0.163-1.763-0.266-2.188-0.69c0.606-0.119,1.397-0.063,1.936,0.172
			c-0.245-0.317-0.505-0.626-0.778-0.921l-0.072,0.024c-0.654,0.22-1.455-0.028-1.844-0.328c0.467-0.157,1.095-0.197,1.554-0.073
			c-0.243-0.244-0.495-0.479-0.756-0.702l-0.077,0.036c-0.493,0.234-1.146,0.114-1.479-0.084c0.368-0.176,0.888-0.267,1.265-0.195
			c-0.22-0.18-0.447-0.353-0.679-0.518l-0.106,0.063c-0.426,0.255-1.029,0.203-1.35,0.051c0.352-0.209,0.874-0.341,1.228-0.271
			c-0.229-0.156-0.461-0.305-0.7-0.447c-0.018-0.004-0.034-0.01-0.051-0.018l-0.121,0.072c-0.381,0.228-0.918,0.18-1.201,0.045
			c0.332-0.197,0.84-0.318,1.154-0.227C110.454,146.484,110.362,146.433,110.271,146.384L110.271,146.384z M109.513,146.054
			c-0.291-0.063-0.729,0.047-1.021,0.222c0.262,0.123,0.756,0.167,1.106-0.042l0.114-0.068l0.013,0.002l-0.014-0.146
			c-0.039-0.404-0.367-0.778-0.622-0.916C109.122,145.441,109.292,145.856,109.513,146.054z"/>
		
			<text transform="matrix(1 0 0 1 93.3516 162.6899)" fill="none" stroke="#000000" stroke-width="0.75" stroke-linecap="round" stroke-linejoin="round" stroke-miterlimit="10" font-family="'Georgia-Bold'" font-size="17.9106">10</text>
		<path fill-rule="evenodd" fill="#CC9A32" d="M98.306,146.204l0.012-0.002l0.115,0.068c0.35,0.209,0.844,0.166,1.106,0.042
			c-0.292-0.175-0.729-0.284-1.021-0.221c0.222-0.199,0.391-0.614,0.424-0.95c-0.256,0.137-0.584,0.51-0.623,0.917L98.306,146.204
			L98.306,146.204z M110.271,146.384c0.093,0.048,0.186,0.098,0.277,0.15c-0.232-0.222-0.407-0.66-0.442-1.017
			c0.277,0.149,0.633,0.554,0.674,0.995l0.016,0.158l-0.004-0.002c0.247,0.145,0.491,0.295,0.73,0.455l0.023,0.006
			c-0.264-0.246-0.465-0.742-0.504-1.146c0.311,0.167,0.71,0.622,0.758,1.117l0.017,0.178c-0.031-0.006-0.063-0.015-0.093-0.028
			l-0.008,0.005c0.254,0.176,0.502,0.359,0.744,0.551c0.036,0.01,0.07,0.021,0.103,0.035c-0.263-0.296-0.432-0.859-0.433-1.307
			c0.324,0.217,0.713,0.755,0.714,1.301v0.195c-0.034-0.009-0.066-0.021-0.099-0.039l-0.037,0.018
			c0.293,0.243,0.574,0.499,0.846,0.766c0.057,0.021,0.111,0.046,0.159,0.073c-0.286-0.411-0.412-1.144-0.347-1.704
			c0.373,0.32,0.781,1.053,0.699,1.737l-0.029,0.247c-0.041-0.017-0.08-0.039-0.118-0.065l-0.061,0.021
			c0.319,0.335,0.622,0.686,0.906,1.053c0.034,0.021,0.068,0.043,0.099,0.066c-0.283-0.545-0.32-1.455-0.15-2.125
			c0.402,0.447,0.781,1.402,0.573,2.222l-0.074,0.294c-0.048-0.025-0.093-0.059-0.134-0.098l-0.037,0.008
			c0.279,0.385,0.539,0.785,0.777,1.201c0.031,0.025,0.061,0.053,0.088,0.08c-0.228-0.646-0.127-1.658,0.164-2.371
			c0.375,0.556,0.645,1.671,0.289,2.543l-0.128,0.314c-0.048-0.037-0.093-0.079-0.132-0.129l-0.038,0.002
			c0.21,0.396,0.401,0.807,0.571,1.225c0.064,0.064,0.123,0.129,0.174,0.196c-0.144-0.724,0.117-1.788,0.537-2.505
			c0.315,0.65,0.434,1.883-0.08,2.759l-0.186,0.315c-0.046-0.047-0.086-0.1-0.121-0.158l-0.098-0.008
			c0.177,0.502,0.326,1.02,0.445,1.547c0.023,0.037,0.044,0.076,0.064,0.113c-0.025-0.794,0.438-1.877,1.01-2.564
			c0.22,0.746,0.129,2.074-0.57,2.914l-0.251,0.303c-0.04-0.057-0.074-0.121-0.101-0.189l-0.039-0.01
			c0.094,0.521,0.158,1.053,0.191,1.592c0.203-0.834,0.861-1.808,1.554-2.398c0.102,0.863-0.25,2.311-1.181,3.106l-0.335,0.285
			l-0.015-0.031c-0.004,0.501-0.034,0.994-0.091,1.48c0.007,0.036,0.014,0.071,0.019,0.106c0.273-0.866,1.186-1.859,2.063-2.383
			c-0.045,0.888-0.647,2.286-1.721,2.928l-0.386,0.23c-0.022-0.077-0.034-0.158-0.038-0.242l-0.023-0.017
			c-0.106,0.647-0.258,1.279-0.45,1.893c0.53-0.841,1.681-1.656,2.701-2.018c-0.246,0.958-1.212,2.353-2.522,2.815l-0.473,0.166
			c-0.004-0.039-0.004-0.08-0.003-0.12c-0.204,0.527-0.44,1.038-0.707,1.53c0.685-0.717,1.956-1.293,3.017-1.452
			c-0.422,0.895-1.633,2.079-3.01,2.286l-0.494,0.074c0.004-0.034,0.008-0.068,0.016-0.104c-0.307,0.486-0.643,0.951-1.006,1.393
			c0.943-0.619,2.488-0.939,3.701-0.854c-0.693,0.893-2.338,1.912-3.922,1.799l-0.57-0.04c0.004-0.013,0.01-0.026,0.014-0.04
			c-0.45,0.462-0.934,0.893-1.445,1.287c1.202-0.367,2.902-0.279,4.16,0.135c-1.008,0.787-3.097,1.45-4.805,0.889l-0.568-0.187
			c-0.611,0.373-1.253,0.7-1.922,0.976c1.369-0.127,3.228,0.438,4.481,1.247c-1.257,0.544-3.601,0.669-5.221-0.375l-0.582-0.376
			c0.017-0.016,0.035-0.031,0.053-0.045c-1.248,0.373-2.569,0.576-3.939,0.576c-1.327,0-2.611-0.189-3.825-0.543
			c0.02,0.016,0.039,0.033,0.058,0.05l-0.582,0.374c-1.621,1.045-3.964,0.921-5.222,0.376c1.244-0.802,3.082-1.364,4.448-1.251
			c-0.669-0.27-1.313-0.592-1.924-0.96l-0.532,0.175c-1.708,0.563-3.797-0.102-4.806-0.889c1.221-0.402,2.855-0.496,4.05-0.167
			c-0.484-0.372-0.944-0.778-1.373-1.21l-0.518,0.036c-1.585,0.112-3.229-0.907-3.923-1.8c1.142-0.08,2.577,0.199,3.528,0.747
			c-0.31-0.38-0.598-0.777-0.866-1.189l-0.445-0.067c-1.376-0.207-2.587-1.392-3.01-2.287c0.967,0.146,2.106,0.635,2.819,1.264
			c-0.211-0.402-0.402-0.816-0.573-1.242l-0.411-0.145c-1.312-0.464-2.277-1.856-2.522-2.814c0.914,0.322,1.932,1.01,2.515,1.755
			c-0.132-0.449-0.243-0.908-0.33-1.374l-0.382-0.229c-1.072-0.643-1.675-2.04-1.72-2.928c0.777,0.465,1.582,1.299,1.946,2.086
			c-0.047-0.443-0.071-0.893-0.075-1.347l-0.231-0.197c-0.93-0.795-1.281-2.243-1.181-3.107c0.606,0.519,1.186,1.327,1.457,2.08
			c0.03-0.368,0.075-0.732,0.133-1.093l-0.234-0.283c-0.7-0.84-0.791-2.168-0.57-2.913c0.497,0.597,0.914,1.497,0.996,2.245
			c0.1-0.42,0.218-0.83,0.354-1.232c-0.017,0.02-0.033,0.039-0.051,0.057l-0.185-0.316c-0.514-0.875-0.396-2.107-0.08-2.758
			c0.391,0.668,0.645,1.639,0.56,2.354c0.161-0.402,0.341-0.795,0.537-1.178l-0.113-0.279c-0.355-0.872-0.085-1.988,0.29-2.544
			c0.249,0.61,0.357,1.438,0.243,2.069c0.188-0.318,0.391-0.627,0.604-0.926l-0.064-0.256c-0.206-0.82,0.172-1.775,0.574-2.223
			c0.144,0.568,0.139,1.312-0.04,1.855c0.228-0.282,0.465-0.556,0.713-0.82l-0.027-0.23c-0.081-0.685,0.326-1.42,0.699-1.738
			c0.058,0.491-0.032,1.114-0.247,1.538c0.247-0.241,0.505-0.474,0.77-0.696v-0.15c0.001-0.547,0.391-1.084,0.714-1.301
			c-0.001,0.363-0.111,0.805-0.295,1.117c0.201-0.156,0.406-0.307,0.616-0.45l0.01-0.101c0.047-0.494,0.447-0.949,0.757-1.117
			c-0.028,0.304-0.149,0.66-0.32,0.923c0.189-0.119,0.381-0.233,0.576-0.344l0.006-0.05c0.042-0.441,0.396-0.846,0.674-0.995
			c-0.026,0.275-0.138,0.601-0.294,0.835l0.013-0.006l-0.013,0.007c-0.048,0.071-0.1,0.135-0.153,0.185
			c0.313-0.097,0.827,0.024,1.163,0.225c-0.284,0.135-0.821,0.183-1.201-0.045l-0.121-0.072c-0.027,0.012-0.055,0.021-0.083,0.025
			l0.01-0.101c-0.202,0.118-0.402,0.241-0.599,0.37c-0.05,0.072-0.104,0.137-0.16,0.19c0.352-0.111,0.93,0.026,1.308,0.251
			c-0.319,0.152-0.923,0.205-1.349-0.051l-0.138-0.081c-0.03,0.015-0.062,0.022-0.093,0.028l0.005-0.045
			c-0.23,0.164-0.457,0.336-0.677,0.515c-0.024,0.033-0.049,0.064-0.074,0.093c0.374-0.156,1.02-0.066,1.456,0.141
			c-0.334,0.199-0.986,0.318-1.48,0.084l-0.157-0.075c-0.024,0.014-0.048,0.024-0.072,0.032c-0.293,0.254-0.575,0.521-0.845,0.799
			c0.454-0.225,1.238-0.203,1.796-0.016c-0.389,0.299-1.19,0.547-1.844,0.327l-0.188-0.063c-0.322,0.348-0.627,0.714-0.911,1.096
			c0.517-0.348,1.476-0.448,2.184-0.307c-0.426,0.424-1.359,0.854-2.188,0.689l-0.239-0.047c-0.266,0.379-0.513,0.773-0.739,1.182
			c0.534-0.432,1.53-0.67,2.305-0.627c-0.403,0.535-1.369,1.155-2.31,1.103l-0.242-0.013c-0.19,0.375-0.364,0.762-0.521,1.158
			c0.537-0.475,1.462-0.82,2.224-0.888c-0.349,0.634-1.285,1.443-2.297,1.531l-0.168,0.015c-0.152,0.452-0.281,0.915-0.385,1.387
			c0.478-0.613,1.422-1.162,2.236-1.371c-0.258,0.732-1.11,1.756-2.169,2.027l-0.205,0.053c-0.092,0.551-0.151,1.113-0.175,1.684
			c0.354-0.82,1.368-1.695,2.292-2.109c-0.146,0.858-0.892,2.147-2.008,2.648l-0.296,0.131c0.002,0.455,0.027,0.905,0.073,1.348
			c0.31-0.818,1.09-1.721,1.861-2.236c0,0.889-0.531,2.316-1.572,3.01l-0.167,0.113c0.098,0.578,0.232,1.145,0.401,1.695
			c0.121-0.984,0.797-2.204,1.554-2.965c0.195,0.97-0.068,2.645-1.05,3.631l-0.203,0.205c0.192,0.502,0.413,0.99,0.66,1.463
			c-0.051-0.984,0.378-2.283,0.968-3.16c0.375,0.916,0.433,2.609-0.344,3.764l-0.151,0.225c0.292,0.47,0.611,0.922,0.955,1.352
			c-0.308-1.084-0.154-2.649,0.286-3.779c0.646,0.928,1.131,2.801,0.554,4.28l-0.125,0.321c0.503,0.534,1.048,1.026,1.631,1.473
			c-0.695-1.094-0.989-2.942-0.812-4.359c0.967,0.838,2.019,2.76,1.794,4.546l-0.059,0.46c0.603,0.386,1.239,0.725,1.901,1.01
			c-0.905-0.992-1.604-2.665-1.786-4.066c1.228,0.608,2.835,2.318,3.084,4.229l0.045,0.333c1.245,0.385,2.566,0.592,3.935,0.592
			c1.413,0,2.774-0.221,4.054-0.629l0.045-0.333c0.248-1.911,1.856-3.62,3.084-4.229c-0.182,1.39-0.871,3.047-1.765,4.043
			c0.653-0.291,1.28-0.633,1.874-1.022l-0.053-0.425c-0.225-1.785,0.827-3.707,1.793-4.545c0.173,1.374-0.098,3.154-0.749,4.257
			c0.552-0.437,1.067-0.917,1.544-1.433l-0.1-0.258c-0.578-1.481-0.094-3.354,0.553-4.281c0.419,1.074,0.578,2.54,0.33,3.613
			c0.309-0.402,0.598-0.822,0.861-1.259l-0.102-0.15c-0.775-1.155-0.719-2.849-0.343-3.765c0.55,0.818,0.96,2.006,0.971,2.961
			c0.218-0.434,0.411-0.881,0.582-1.34l-0.129-0.128c-0.98-0.987-1.245-2.661-1.05-3.632c0.698,0.702,1.326,1.795,1.516,2.732
			c0.143-0.498,0.256-1.01,0.34-1.529l-0.067-0.046c-1.04-0.694-1.571-2.122-1.571-3.011c0.702,0.47,1.412,1.26,1.768,2.016
			c0.031-0.387,0.051-0.779,0.051-1.176v-0.003l-0.18-0.08c-1.115-0.499-1.863-1.79-2.009-2.647c0.827,0.37,1.726,1.111,2.159,1.85
			c-0.031-0.494-0.088-0.98-0.17-1.457l-0.076-0.02c-1.059-0.272-1.912-1.295-2.17-2.027c0.727,0.186,1.555,0.643,2.066,1.174
			c-0.099-0.408-0.215-0.809-0.348-1.201l-0.034-0.002c-1.013-0.09-1.948-0.898-2.297-1.531c0.676,0.059,1.481,0.339,2.028,0.731
			c-0.14-0.339-0.293-0.671-0.459-0.995l-0.108,0.006c-0.94,0.051-1.907-0.568-2.31-1.104c0.674-0.037,1.518,0.139,2.077,0.471
			c-0.198-0.344-0.411-0.678-0.638-1.001l-0.114,0.022c-0.829,0.163-1.763-0.266-2.188-0.69c0.606-0.119,1.397-0.063,1.936,0.172
			c-0.245-0.317-0.505-0.626-0.778-0.921l-0.072,0.024c-0.654,0.22-1.455-0.028-1.844-0.328c0.467-0.157,1.095-0.197,1.554-0.073
			c-0.243-0.244-0.495-0.479-0.756-0.702l-0.077,0.036c-0.493,0.234-1.146,0.114-1.479-0.084c0.368-0.176,0.888-0.267,1.265-0.195
			c-0.22-0.18-0.447-0.353-0.679-0.518l-0.106,0.063c-0.426,0.255-1.029,0.203-1.35,0.051c0.352-0.209,0.874-0.341,1.228-0.271
			c-0.229-0.156-0.461-0.305-0.7-0.447c-0.018-0.004-0.034-0.01-0.051-0.018l-0.121,0.072c-0.381,0.228-0.918,0.18-1.201,0.045
			c0.332-0.197,0.84-0.318,1.154-0.227C110.454,146.484,110.362,146.433,110.271,146.384L110.271,146.384z M109.513,146.054
			c-0.291-0.063-0.729,0.047-1.021,0.222c0.262,0.123,0.756,0.167,1.106-0.042l0.114-0.068l0.013,0.002l-0.014-0.146
			c-0.039-0.404-0.367-0.778-0.622-0.916C109.122,145.441,109.292,145.856,109.513,146.054z"/>
		<text transform="matrix(1 0 0 1 93.3516 162.6899)" fill="#CC9A32" font-family="'Georgia-Bold'" font-size="17.9106">10</text>
	</g>
</g>
</svg>
