<?xml version="1.0" encoding="UTF-8" standalone="no"?>
<!-- Created with Inkscape (http://www.inkscape.org/) -->

<svg
   xmlns:dc="http://purl.org/dc/elements/1.1/"
   xmlns:cc="http://creativecommons.org/ns#"
   xmlns:rdf="http://www.w3.org/1999/02/22-rdf-syntax-ns#"
   xmlns:svg="http://www.w3.org/2000/svg"
   xmlns="http://www.w3.org/2000/svg"
   xmlns:sodipodi="http://sodipodi.sourceforge.net/DTD/sodipodi-0.dtd"
   xmlns:inkscape="http://www.inkscape.org/namespaces/inkscape"
   version="1.0"
   width="197.98587"
   height="34.258617"
   id="svg2"
   sodipodi:version="0.32"
   inkscape:version="0.91 r13725"
   sodipodi:docname="geokrety-FFFF.svg"
   inkscape:output_extension="org.inkscape.output.svg.inkscape"
   inkscape:export-filename="/mnt/nfs/geokrety/templates/logo-jesien.png"
   inkscape:export-xdpi="131.54472"
   inkscape:export-ydpi="131.54472">
  <metadata
     id="metadata32">
    <rdf:RDF>
      <cc:Work
         rdf:about="">
        <dc:format>image/svg+xml</dc:format>
        <dc:type
           rdf:resource="http://purl.org/dc/dcmitype/StillImage" />
        <dc:title></dc:title>
      </cc:Work>
    </rdf:RDF>
  </metadata>
  <sodipodi:namedview
     inkscape:window-height="843"
     inkscape:window-width="1440"
     inkscape:pageshadow="2"
     inkscape:pageopacity="0.0"
     guidetolerance="10.0"
     gridtolerance="10.0"
     objecttolerance="10.0"
     borderopacity="1.0"
     bordercolor="#666666"
     pagecolor="#ffffff"
     id="base"
     showgrid="false"
     inkscape:zoom="1.9149485"
     inkscape:cx="237.03569"
     inkscape:cy="79.378605"
     inkscape:window-x="0"
     inkscape:window-y="0"
     inkscape:current-layer="svg2"
     inkscape:window-maximized="1" />
  <defs
     id="defs4">
    <inkscape:perspective
       sodipodi:type="inkscape:persp3d"
       inkscape:vp_x="0 : 17.129309 : 1"
       inkscape:vp_y="0 : 1000 : 0"
       inkscape:vp_z="197.98587 : 17.129309 : 1"
       inkscape:persp3d-origin="98.992935 : 11.419539 : 1"
       id="perspective34" />
    <inkscape:perspective
       id="perspective2736"
       inkscape:persp3d-origin="372.04724 : 350.78739 : 1"
       inkscape:vp_z="744.09448 : 526.18109 : 1"
       inkscape:vp_y="0 : 1000 : 0"
       inkscape:vp_x="0 : 526.18109 : 1"
       sodipodi:type="inkscape:persp3d" />
    <inkscape:perspective
       id="perspective3687"
       inkscape:persp3d-origin="372.04724 : 350.78739 : 1"
       inkscape:vp_z="744.09448 : 526.18109 : 1"
       inkscape:vp_y="0 : 1000 : 0"
       inkscape:vp_x="0 : 526.18109 : 1"
       sodipodi:type="inkscape:persp3d" />
    <inkscape:perspective
       id="perspective3743"
       inkscape:persp3d-origin="0.5 : 0.33333333 : 1"
       inkscape:vp_z="1 : 0.5 : 1"
       inkscape:vp_y="0 : 1000 : 0"
       inkscape:vp_x="0 : 0.5 : 1"
       sodipodi:type="inkscape:persp3d" />
    <linearGradient
       x1="86.421"
       y1="159.91"
       gradientTransform="matrix(0.2679624,0.06927852,-0.08799421,0.25482959,349.34191,-25.921629)"
       x2="156.11"
       gradientUnits="userSpaceOnUse"
       y2="159.91"
       id="linearGradient2440">
      <stop
         offset="0"
         stop-color="#72d4f5"
         id="stop5113" />
      <stop
         offset="1"
         stop-opacity="0"
         stop-color="#72d4f5"
         id="stop5115" />
    </linearGradient>
  </defs>
  <g
     transform="matrix(0.08000045,0,0,0.08879281,275.99898,-25.519321)"
     inkscape:label="Layer 1"
     id="layer1"
     inkscape:export-filename="/home/filips/geokrety-FFFF.png"
     inkscape:export-xdpi="129.84634"
     inkscape:export-ydpi="129.84634">
    <g
       transform="matrix(3.3799,0,0,3.2813,-1903.1,-2411.3)"
       style="fill:#ff7f2a;stroke:#000000;stroke-width:2"
       id="g1989">
      <path
         d="m 653.39,946.79 c -160.62,-201.21 248.82,-137.02 4.55,0.64 -2.37,0.8 -20.96,6.25 -21.08,6.82 -1.94,8.83 11.3,3.86 15.1,1.84 -1.44,6.53 26.57,2.75 19.12,-1.29 -5.85,-3.17 -12.68,-3.75 -17.69,-8.01 z"
         style="fill:#ff7f2a;stroke:#000000;stroke-width:2"
         id="path1991"
         inkscape:connector-curvature="0" />
    </g>
    <g
       transform="matrix(3.3799,0,0,3.2813,-1903.1,-2411.3)"
       style="fill:#ffffff"
       id="g1997">
      <path
         d="m 700.19,842.32 c 4.1,-1.86 6.86,-3.39 11.83,-6.29 4.52,1.81 19.97,17.92 17.62,22.02 -1.28,2.24 -1.91,2.3 -3.07,0.73 -6.47,-8.81 -22.49,-17.09 -26.38,-16.46 z"
         style="fill:#ffffff"
         id="path1999"
         inkscape:connector-curvature="0" />
    </g>
  </g>
  <polygon
     id="polygon3440"
     points="99.9553,101.792 100.167,101.792 99.9553,101.792 "
     class="fil59"
     style="fill:#ffffff;fill-rule:nonzero"
     transform="matrix(1.8094894,0,0,1.8094894,-1018.7853,-73.3414)" />
  <polygon
     id="polygon3450"
     points="149.309,106.555 149.485,106.555 149.309,106.555 "
     class="fil59"
     style="fill:#ffffff;fill-rule:nonzero"
     transform="matrix(1.8094894,0,0,1.8094894,-1018.7853,-73.3414)" />
  <polygon
     id="polygon3456"
     points="116.395,107.26 116.606,107.26 116.395,107.26 "
     class="fil58"
     style="fill:#000000;fill-rule:nonzero"
     transform="matrix(1.8094894,0,0,1.8094894,-1018.7853,-73.3414)" />
  <polygon
     id="polygon3466"
     points="143.276,110.647 143.382,110.647 143.276,110.647 "
     class="fil59"
     style="fill:#ffffff;fill-rule:nonzero"
     transform="matrix(1.8094894,0,0,1.8094894,-1018.7853,-73.3414)" />
  <polygon
     id="polygon3472"
     points="142.077,111.317 142.289,111.317 142.077,111.317 "
     class="fil59"
     style="fill:#ffffff;fill-rule:nonzero"
     transform="matrix(1.8094894,0,0,1.8094894,-1018.7853,-73.3414)" />
  <polygon
     id="polygon3504"
     points="85.2445,126.981 85.3503,126.981 85.2445,126.981 "
     class="fil59"
     style="fill:#ffffff;fill-rule:nonzero"
     transform="matrix(1.8094894,0,0,1.8094894,-1018.7853,-73.3414)" />
  <polygon
     id="polygon3520"
     points="149.944,135.871 150.12,135.871 149.944,135.871 "
     class="fil59"
     style="fill:#ffffff;fill-rule:nonzero"
     transform="matrix(1.8094894,0,0,1.8094894,-1018.7853,-73.3414)" />
  <polygon
     id="polygon3532"
     points="82.2459,140.951 82.4575,140.951 82.2459,140.951 "
     class="fil59"
     style="fill:#ffffff;fill-rule:nonzero"
     transform="matrix(1.8094894,0,0,1.8094894,-1018.7853,-73.3414)" />
  <polygon
     id="polygon3536"
     points="109.339,141.797 109.586,141.797 109.339,141.797 "
     class="fil59"
     style="fill:#ffffff;fill-rule:nonzero"
     transform="matrix(1.8094894,0,0,1.8094894,-1018.7853,-73.3414)" />
  <polygon
     id="polygon3560"
     points="131.07,148.218 131.247,148.218 131.07,148.218 "
     class="fil59"
     style="fill:#ffffff;fill-rule:nonzero"
     transform="matrix(1.8094894,0,0,1.8094894,-1018.7853,-73.3414)" />
  <polygon
     id="polygon3572"
     points="113.079,153.298 113.255,153.298 113.079,153.298 "
     class="fil59"
     style="fill:#ffffff;fill-rule:nonzero"
     transform="matrix(1.8094894,0,0,1.8094894,-1018.7853,-73.3414)" />
  <polygon
     id="polygon3576"
     points="145.605,153.721 145.781,153.721 145.605,153.721 "
     class="fil59"
     style="fill:#ffffff;fill-rule:nonzero"
     transform="matrix(1.8094894,0,0,1.8094894,-1018.7853,-73.3414)" />
  <polygon
     id="polygon3586"
     points="106.164,157.708 106.305,157.708 106.164,157.708 "
     class="fil59"
     style="fill:#ffffff;fill-rule:nonzero"
     transform="matrix(1.8094894,0,0,1.8094894,-1018.7853,-73.3414)" />
  <polygon
     id="polygon3618"
     points="129.589,173.477 129.765,173.477 129.589,173.477 "
     class="fil59"
     style="fill:#ffffff;fill-rule:nonzero"
     transform="matrix(1.8094894,0,0,1.8094894,-1018.7853,-73.3414)" />
  <polygon
     id="polygon3630"
     points="100.59,177.569 100.943,177.569 100.59,177.569 "
     class="fil58"
     style="fill:#000000;fill-rule:nonzero"
     transform="matrix(1.8094894,0,0,1.8094894,-1018.7853,-73.3414)" />
  <polygon
     id="polygon3686"
     points="109.692,201.205 110.327,201.205 109.692,201.205 "
     class="fil59"
     style="fill:#ffffff;fill-rule:nonzero"
     transform="matrix(1.8094894,0,0,1.8094894,-1018.7853,-73.3414)" />
  <polygon
     id="polygon3690"
     points="89.5837,203.004 89.7601,203.004 89.5837,203.004 "
     class="fil58"
     style="fill:#000000;fill-rule:nonzero"
     transform="matrix(1.8094894,0,0,1.8094894,-1018.7853,-73.3414)" />
  <polygon
     id="polygon3694"
     points="109.621,203.251 109.974,203.251 109.621,203.251 "
     class="fil59"
     style="fill:#ffffff;fill-rule:nonzero"
     transform="matrix(1.8094894,0,0,1.8094894,-1018.7853,-73.3414)" />
  <polygon
     id="polygon3696"
     points="106.023,203.322 106.199,203.322 106.023,203.322 "
     class="fil59"
     style="fill:#ffffff;fill-rule:nonzero"
     transform="matrix(1.8094894,0,0,1.8094894,-1018.7853,-73.3414)" />
  <g
     id="g15767"
     transform="matrix(0.2230704,0,0,0.2322423,46.969368,6.5451007)"
     inkscape:export-filename="/home/filips/geokrety-FFFF.png"
     inkscape:export-xdpi="129.84634"
     inkscape:export-ydpi="129.84634">
    <polygon
       transform="matrix(1.8020893,-0.1634812,0.1634812,1.8020893,-298.8125,-111.4466)"
       style="fill:#ffffff;fill-rule:nonzero;stroke-linecap:round;stroke-linejoin:round"
       class="fil59"
       points="151.143,106.696 151.073,106.766 151.143,106.696 "
       id="polygon2819" />
    <polygon
       transform="matrix(1.8020893,-0.1634812,0.1634812,1.8020893,-298.8125,-111.4466)"
       style="fill:#ffffff;fill-rule:nonzero;stroke-linecap:round;stroke-linejoin:round"
       class="fil59"
       points="151.955,106.908 152.06,107.049 151.955,106.908 "
       id="polygon2821" />
    <polygon
       transform="matrix(1.8020893,-0.1634812,0.1634812,1.8020893,-298.8125,-111.4466)"
       style="fill:#ffffff;fill-rule:nonzero;stroke-linecap:round;stroke-linejoin:round"
       class="fil59"
       points="147.686,117.844 147.545,117.914 147.686,117.844 "
       id="polygon2823" />
    <path
       sodipodi:nodetypes="cssz"
       id="path2825"
       d="M -79.4383,41.734855 C -65.271766,52.257641 -16.998351,82.84439 -12.71995,90.448659 C -9.5091385,96.155432 -16.61309,106.92599 -22.070991,104.8329 C -33.802516,100.3339 -28.538218,94.655651 -77.931107,57.340667"
       style="fill:#e9c642;fill-opacity:1;fill-rule:evenodd;stroke:#000000;stroke-width:2.81500006;stroke-linecap:round;stroke-linejoin:round;stroke-miterlimit:4;stroke-dasharray:none;stroke-opacity:1" />
    <path
       sodipodi:nodetypes="cscszczzzzzzzzzczzzzzz"
       id="path2827"
       d="M -77.634427,85.689881 C -75.225706,84.463375 -64.695395,82.57159 -62.481237,79.707255 C -60.267605,76.843599 -61.807466,73.375307 -60.79779,70.964798 C -58.209285,72.843818 -53.791405,73.876445 -52.294355,73.229633 C -50.890766,72.623202 -47.728803,67.416718 -47.7032,65.370919 C -47.677598,63.325109 -49.812074,61.762336 -51.155325,61.005459 C -45.63657,57.552829 -42.13148,57.593275 -38.197571,58.496393 C -34.263663,59.399511 -35.395899,61.668673 -33.204398,63.009063 C -31.066471,64.316685 -29.349056,63.6435 -27.967583,64.912317 C -26.58611,66.181134 -26.376623,68.33181 -24.867266,69.991223 C -23.321076,71.691132 -22.168224,70.902181 -20.464508,73.015609 C -18.76079,75.129037 -19.311871,76.317782 -18.19896,78.664803 C -17.086048,81.011834 -14.188166,79.89819 -17.298876,85.688362 C -20.315615,91.303608 -23.935212,94.282349 -26.428452,96.164522 C -28.983967,98.093714 -34.845869,99.808118 -36.140775,98.629599 C -37.685268,97.22392 -37.019997,97.339096 -36.568551,95.966144 C -37.818335,96.475521 -38.477557,97.077602 -40.853661,97.473152 C -43.229764,97.868703 -43.758725,97.196695 -44.735518,95.953309 C -45.71231,94.709924 -43.524003,91.847422 -44.76083,92.499622 C -45.997657,93.151822 -45.865152,96.199786 -49.682827,98.562111 C -53.500503,100.92443 -59.467208,103.68872 -64.255122,104.48306 C -69.043036,105.2774 -72.074006,102.14138 -74.274745,102.08902"
       style="fill:#d4af8b;fill-opacity:1;fill-rule:evenodd;stroke:#000000;stroke-width:2.81500006;stroke-linecap:round;stroke-linejoin:round;stroke-miterlimit:4;stroke-dasharray:none;stroke-opacity:1" />
    <path
       sodipodi:nodetypes="cszz"
       id="path2829"
       d="M -57.646164,81.235683 C -51.145445,87.429425 -40.925237,96.551992 -32.688478,95.653113 C -28.855314,95.235682 -35.753515,81.651567 -41.195349,76.364767 C -46.637184,71.077967 -53.960729,74.144265 -55.960082,75.381439"
       style="fill:none;fill-opacity:0.75;fill-rule:evenodd;stroke:#000000;stroke-width:2.81500006;stroke-linecap:round;stroke-linejoin:round;stroke-miterlimit:4;stroke-dasharray:none;stroke-opacity:1" />
    <path
       sodipodi:nodetypes="cz"
       id="path2831"
       d="M -40.681261,76.212549 C -39.260325,75.73036 -36.451694,72.486614 -35.891209,67.331664"
       style="fill:none;fill-opacity:0.75;fill-rule:evenodd;stroke:#000000;stroke-width:2.81500006;stroke-linecap:round;stroke-linejoin:round;stroke-miterlimit:4;stroke-dasharray:none;stroke-opacity:1" />
    <path
       sodipodi:nodetypes="cz"
       id="path2833"
       d="M -34.331917,85.085243 C -31.532034,81.931105 -28.354551,77.880543 -27.766313,74.270568"
       style="fill:none;fill-opacity:0.75;fill-rule:evenodd;stroke:#000000;stroke-width:2.81500006;stroke-linecap:round;stroke-linejoin:round;stroke-miterlimit:4;stroke-dasharray:none;stroke-opacity:1" />
    <path
       sodipodi:nodetypes="cz"
       id="path2835"
       d="M -31.269709,93.835147 C -26.578812,90.56099 -23.347373,86.645088 -21.855797,82.489985"
       style="fill:none;fill-opacity:0.75;fill-rule:evenodd;stroke:#000000;stroke-width:2.81500006;stroke-linecap:round;stroke-linejoin:round;stroke-miterlimit:4;stroke-dasharray:none;stroke-opacity:1" />
    <g
       transform="matrix(0.702831,3.7163548e-2,-3.7163548e-2,0.702831,-275.97308,-686.68328)"
       id="g2837">
      <path
         style="opacity:1;fill:#667b58;fill-opacity:1;fill-rule:evenodd;stroke:#000000;stroke-width:4;stroke-linecap:butt;stroke-linejoin:round;stroke-miterlimit:4;stroke-dasharray:none;stroke-opacity:1"
         d="M 291.29335,966.00527 L 252.61617,1040.1833 L 205.71775,1025.7961 L 150.41126,971.7975 L 223.09446,944.14426 L 291.29335,966.00527 z"
         id="path2839"
         sodipodi:nodetypes="cccccc" />
      <path
         style="opacity:1;fill:#c5c5c5;fill-opacity:1;fill-rule:evenodd;stroke:#000000;stroke-width:4;stroke-linecap:butt;stroke-linejoin:round;stroke-miterlimit:4;stroke-dasharray:none;stroke-opacity:1"
         d="M 205.71775,1025.7961 L 150.41126,971.79749 L 223.09446,944.14425 L 245.42215,951.6338 L 177.66932,977.12969 L 226.97716,1032.1482 L 205.71775,1025.7961 z"
         id="path2841"
         sodipodi:nodetypes="ccccccc" />
      <path
         style="fill:#667b58;fill-opacity:1;fill-rule:evenodd;stroke:#000000;stroke-width:4;stroke-linecap:butt;stroke-linejoin:round;stroke-miterlimit:4;stroke-dasharray:none;stroke-opacity:1"
         d="M 288.17968,1000.584 L 278.98243,1020.2322 C 263.77968,1010.4249 217.31948,992.73682 226.58677,983.76771 C 235.999,974.65833 265.00274,987.54157 288.17968,1000.584 z"
         id="path2843"
         sodipodi:nodetypes="cczc" />
    </g>
    <path
       sodipodi:nodetypes="cccszscccczzc"
       id="path2845"
       d="M -64.623652,62.930554 C -66.456684,68.179661 -67.840387,89.6045 -61.136238,105.6375 C -115.97415,103.81315 -119.16586,83.734739 -160.21029,74.868976 C -154.55315,61.486426 -147.2576,54.440235 -135.3177,44.916252 C -129.9827,40.660732 -123.45644,32.72938 -118.26292,27.617798 C -113.0694,22.506216 -108.72745,18.886839 -102.6931,16.341167 C -91.569077,11.64835 -75.805061,12.823941 -66.178093,21.447259 C -69.033314,22.126579 -75.947544,21.340983 -75.894357,26.396471 C -75.389646,32.103972 -79.900467,34.706531 -83.860316,37.740668 C -86.438291,40.411287 -84.960037,44.52268 -88.777828,46.06037 C -88.957251,50.633184 -87.182594,55.046794 -84.585904,59.102094 C -81.874726,63.336162 -79.057053,66.063015 -75.20783,68.562395 C -71.358607,71.061846 -67.071,65.804434 -64.623652,62.930554 z"
       style="fill:#5d5d5d;fill-opacity:1;fill-rule:evenodd;stroke:#000000;stroke-width:2.81525159;stroke-linecap:butt;stroke-linejoin:round;stroke-miterlimit:4;stroke-dasharray:none;stroke-opacity:1" />
    <path
       sodipodi:nodetypes="ccccczzczccczz"
       id="path2847"
       d="M -64.873618,62.627422 C -68.108504,66.132974 -71.608573,70.758713 -75.457796,68.259263 C -79.307019,65.759882 -82.124692,63.03303 -84.835871,58.798962 C -87.43256,54.743662 -89.207217,50.330051 -89.027794,45.757238 C -85.210003,44.219548 -86.688257,40.108154 -84.110282,37.437536 C -80.150433,34.403399 -75.639612,31.80084 -76.144323,26.093339 C -76.19751,21.037781 -68.16709,21.882356 -66.242084,21.98096 C -64.22433,22.084351 -53.110118,23.524985 -49.465549,23.316305 C -46.943323,21.527212 -44.230314,18.550084 -42.576952,17.52125 C -40.966657,16.519232 -38.828452,14.01415 -36.794179,14.751676 C -30.439713,15.1696 -31.979036,22.423588 -32.32401,27.19171 C -33.238545,33.430941 -41.648025,35.120725 -50.000419,41.283944 C -56.191235,45.988159 -55.649798,46.374693 -59.368098,51.71058 C -63.086398,57.046467 -61.638732,59.121871 -64.873618,62.627422 z"
       style="fill:#d4af8b;fill-opacity:1;fill-rule:evenodd;stroke:#000000;stroke-width:2.81525159;stroke-linecap:butt;stroke-linejoin:round;stroke-miterlimit:4;stroke-dasharray:none;stroke-opacity:1" />
    <path
       sodipodi:nodetypes="cc"
       id="path2849"
       d="M -38.082516,21.963435 C -37.952191,25.155579 -39.111406,27.283839 -40.958739,28.075417"
       style="fill:none;fill-opacity:0.75;fill-rule:evenodd;stroke:#000000;stroke-width:3.51906443;stroke-linecap:round;stroke-linejoin:miter;stroke-miterlimit:4;stroke-dasharray:none;stroke-opacity:1" />
    <path
       sodipodi:nodetypes="cccccccc"
       style="fill:#000000;fill-rule:nonzero;stroke:#000000;stroke-width:2.81525159;stroke-linecap:round;stroke-linejoin:round;stroke-miterlimit:4;stroke-dasharray:none;stroke-opacity:1"
       class="fil58"
       d="M -70.035044,50.037617 C -68.931395,50.000948 -63.039088,47.394729 -62.244976,46.994189 C -64.149944,50.30218 -65.622236,51.000715 -67.586634,55.274407 C -68.452085,57.633307 -70.000431,60.737896 -72.542955,62.306906 C -76.307221,59.559431 -76.633304,54.192858 -78.372356,50.144174 C -83.113422,47.104336 -86.30881,41.897317 -90.626442,42.682983 C -91.652777,40.310712 -90.072647,38.437584 -90.023697,36.25323 C -88.042956,46.509755 -75.600459,50.158039 -70.035044,50.037617 z"
       id="path2851" />
    <path
       style="fill:#ffffff;fill-rule:nonzero"
       class="fil59"
       d="M -68.470517,56.305845 C -69.131187,56.86784 -74.068927,57.093553 -75.232541,56.822233 C -75.688963,55.811276 -76.06311,52.780869 -76.698161,51.575096 C -75.814031,51.597126 -67.606517,52.304528 -64.853834,49.876092 C -66.037366,51.071448 -68.850225,56.440062 -68.470517,56.305845 L -68.470517,56.305845 z"
       id="path2853" />
    <path
       sodipodi:nodetypes="czzc"
       id="path2855"
       d="M -96.300004,30.03441 C -92.747685,29.006069 -92.056977,27.14378 -88.937361,25.920975 C -85.817746,24.698171 -85.804782,24.888341 -83.821535,25.143262 C -81.838289,25.398183 -81.004377,26.94073 -81.004377,26.94073"
       style="fill:none;fill-opacity:0.75;fill-rule:evenodd;stroke:#000000;stroke-width:2.81500006;stroke-linecap:round;stroke-linejoin:round;stroke-miterlimit:4;stroke-dasharray:none;stroke-opacity:1" />
  </g>
  <text
     xml:space="preserve"
     style="font-style:normal;font-weight:normal;font-size:40px;line-height:125%;font-family:sans-serif;letter-spacing:0px;word-spacing:0px;fill:#000000;fill-opacity:1;stroke:none;stroke-width:1px;stroke-linecap:butt;stroke-linejoin:miter;stroke-opacity:1"
     x="49.849598"
     y="27.98126"
     id="text4311"
     sodipodi:linespacing="125%"
     inkscape:export-filename="/home/filips/geokrety-FFFF.png"
     inkscape:export-xdpi="129.84634"
     inkscape:export-ydpi="129.84634"><tspan
       sodipodi:role="line"
       id="tspan4313"
       x="49.849598"
       y="27.98126"
       style="font-style:normal;font-variant:normal;font-weight:normal;font-stretch:normal;font-size:30px;font-family:Ubuntu;-inkscape-font-specification:Ubuntu">GK<tspan
   style="font-weight:bold"
   id="tspan4319"> FFFF </tspan>(16^4 GEOKRETS)</tspan></text>
</svg>
